<svg width="779" height="467" viewBox="0 0 779 467" fill="none" xmlns="http://www.w3.org/2000/svg">
<rect x="136" y="169" width="508" height="198" rx="10" fill="#FAFAFA"/>
<g filter="url(#filter0_d_4_79)">
<rect x="122" y="20" width="538" height="368" rx="12" fill="#535353"/>
<rect x="125" y="23" width="532" height="362" rx="10" fill="#1D1D25"/>
<path d="M40 387C40 385.343 41.3431 384 43 384H735.899C737.556 384 738.899 385.343 738.899 387V401.105H40V387Z" fill="#52526F"/>
<mask id="mask0_4_79" style="mask-type:alpha" maskUnits="userSpaceOnUse" x="40" y="384" width="699" height="18">
<path d="M40 387C40 385.343 41.3431 384 43 384H735.899C737.556 384 738.899 385.343 738.899 387V401.105H40V387Z" fill="white"/>
</mask>
<g mask="url(#mask0_4_79)">
<rect x="332.371" y="342.092" width="114.156" height="52.1711" rx="10" fill="#2F2F47"/>
</g>
<path d="M40 401H739V401C739 404.314 736.314 407 733 407H46C42.6863 407 40 404.314 40 401V401Z" fill="#393A56"/>
</g>
<rect x="136" y="34" width="508" height="333" rx="10" fill="white"/>
<path d="M136 44C136 38.4772 140.477 34 146 34H634C639.523 34 644 38.4772 644 44V213H186C158.386 213 136 190.614 136 163V44Z" fill="url(#paint0_linear_4_79)"/>
<path d="M250.74 106L255.95 92H258.13L263.34 106H260.89L259.76 102.88H254.33L253.22 106H250.74ZM255.07 100.79H259L257.46 96.56C257.42 96.4467 257.373 96.3133 257.32 96.16C257.267 96.0067 257.213 95.8567 257.16 95.71C257.107 95.5567 257.067 95.42 257.04 95.3C257.007 95.42 256.963 95.5567 256.91 95.71C256.863 95.8567 256.813 96.0067 256.76 96.16C256.707 96.3133 256.66 96.4467 256.62 96.56L255.07 100.79ZM270.184 106V95.78H272.424V96.73C272.744 96.33 273.117 96.0333 273.544 95.84C273.97 95.64 274.45 95.54 274.984 95.54C275.584 95.54 276.11 95.6667 276.564 95.92C277.017 96.1667 277.367 96.53 277.614 97.01C277.94 96.5367 278.367 96.1733 278.894 95.92C279.427 95.6667 280.02 95.54 280.674 95.54C281.874 95.54 282.797 95.88 283.444 96.56C284.09 97.2333 284.414 98.2033 284.414 99.47V106H282.164V100.21C282.164 99.3567 282.01 98.72 281.704 98.3C281.404 97.8733 280.95 97.66 280.344 97.66C279.93 97.66 279.577 97.7567 279.284 97.95C278.997 98.1433 278.78 98.43 278.634 98.81C278.487 99.19 278.414 99.6533 278.414 100.2V106H276.164V100.21C276.164 99.3433 276.014 98.7033 275.714 98.29C275.42 97.87 274.967 97.66 274.354 97.66C273.72 97.66 273.24 97.87 272.914 98.29C272.587 98.71 272.424 99.3333 272.424 100.16V106H270.184ZM291.904 106.24C290.477 106.24 289.354 105.763 288.534 104.81C287.714 103.857 287.304 102.553 287.304 100.9C287.304 99.8 287.491 98.85 287.864 98.05C288.237 97.25 288.767 96.6333 289.454 96.2C290.147 95.76 290.964 95.54 291.904 95.54C292.851 95.54 293.667 95.7567 294.354 96.19C295.041 96.6233 295.571 97.24 295.944 98.04C296.317 98.84 296.504 99.79 296.504 100.89C296.504 101.99 296.317 102.94 295.944 103.74C295.571 104.54 295.041 105.157 294.354 105.59C293.667 106.023 292.851 106.24 291.904 106.24ZM291.904 104.11C292.644 104.11 293.221 103.827 293.634 103.26C294.047 102.693 294.254 101.903 294.254 100.89C294.254 99.87 294.044 99.0767 293.624 98.51C293.211 97.9433 292.637 97.66 291.904 97.66C291.171 97.66 290.594 97.9467 290.174 98.52C289.761 99.0867 289.554 99.88 289.554 100.9C289.554 101.907 289.761 102.693 290.174 103.26C290.594 103.827 291.171 104.11 291.904 104.11ZM303.159 106.24C301.846 106.24 300.816 105.763 300.069 104.81C299.323 103.857 298.949 102.547 298.949 100.88C298.949 99.8067 299.123 98.87 299.469 98.07C299.823 97.2633 300.313 96.64 300.939 96.2C301.573 95.76 302.316 95.54 303.169 95.54C304.116 95.54 304.899 95.8667 305.519 96.52V92.59L307.769 91.56V106H305.519V105.18C304.973 105.887 304.186 106.24 303.159 106.24ZM303.509 104.11C303.956 104.11 304.346 104.02 304.679 103.84C305.019 103.66 305.299 103.397 305.519 103.05V98.7C305.299 98.38 305.009 98.1267 304.649 97.94C304.296 97.7533 303.916 97.66 303.509 97.66C302.776 97.66 302.206 97.9367 301.799 98.49C301.399 99.0433 301.199 99.84 301.199 100.88C301.199 101.547 301.293 102.12 301.479 102.6C301.666 103.08 301.933 103.453 302.279 103.72C302.626 103.98 303.036 104.11 303.509 104.11ZM315.265 106.24C314.298 106.24 313.465 106.017 312.765 105.57C312.065 105.123 311.528 104.5 311.155 103.7C310.781 102.893 310.595 101.953 310.595 100.88C310.595 99.7667 310.788 98.8133 311.175 98.02C311.561 97.22 312.105 96.6067 312.805 96.18C313.505 95.7533 314.325 95.54 315.265 95.54C316.071 95.54 316.805 95.7133 317.465 96.06C318.131 96.4067 318.661 96.94 319.055 97.66C319.448 98.3733 319.645 99.2833 319.645 100.39C319.645 100.563 319.641 100.77 319.635 101.01C319.628 101.243 319.608 101.48 319.575 101.72H312.825C312.865 102.24 312.988 102.693 313.195 103.08C313.408 103.467 313.691 103.77 314.045 103.99C314.398 104.203 314.815 104.31 315.295 104.31C315.761 104.31 316.175 104.233 316.535 104.08C316.895 103.92 317.238 103.667 317.565 103.32L318.865 104.69C318.445 105.15 317.931 105.523 317.325 105.81C316.725 106.097 316.038 106.24 315.265 106.24ZM312.835 99.91H317.445C317.425 99.4233 317.325 98.9967 317.145 98.63C316.971 98.2633 316.725 97.98 316.405 97.78C316.085 97.5733 315.695 97.47 315.235 97.47C314.595 97.47 314.048 97.67 313.595 98.07C313.148 98.47 312.895 99.0833 312.835 99.91ZM322.487 106V95.78H324.727V96.96C324.927 96.52 325.227 96.1733 325.627 95.92C326.034 95.6667 326.481 95.54 326.967 95.54C327.654 95.54 328.234 95.7633 328.707 96.21L328.397 98.28C328.144 98.08 327.891 97.9367 327.637 97.85C327.384 97.7633 327.104 97.72 326.797 97.72C326.371 97.72 326.004 97.8267 325.697 98.04C325.391 98.2533 325.151 98.5567 324.977 98.95C324.811 99.3433 324.727 99.81 324.727 100.35V106H322.487ZM330.637 106V95.78H332.877V96.78C333.197 96.36 333.58 96.05 334.027 95.85C334.48 95.6433 334.997 95.54 335.577 95.54C336.757 95.54 337.653 95.9 338.267 96.62C338.88 97.34 339.187 98.3967 339.187 99.79V106H336.937V100.2C336.937 99.3467 336.773 98.71 336.447 98.29C336.127 97.87 335.64 97.66 334.987 97.66C334.28 97.66 333.75 97.8667 333.397 98.28C333.05 98.6933 332.877 99.32 332.877 100.16V106H330.637ZM347.58 110.06V95.78H349.82V96.57C350.44 95.8833 351.23 95.54 352.19 95.54C353.063 95.54 353.813 95.7567 354.44 96.19C355.073 96.6233 355.56 97.24 355.9 98.04C356.246 98.84 356.42 99.79 356.42 100.89C356.42 101.97 356.243 102.91 355.89 103.71C355.536 104.51 355.043 105.133 354.41 105.58C353.776 106.02 353.033 106.24 352.18 106.24C351.68 106.24 351.233 106.153 350.84 105.98C350.453 105.8 350.113 105.53 349.82 105.17V109.03L347.58 110.06ZM351.85 104.11C352.59 104.11 353.156 103.83 353.55 103.27C353.95 102.71 354.15 101.917 354.15 100.89C354.15 99.8767 353.946 99.0867 353.54 98.52C353.133 97.9467 352.57 97.66 351.85 97.66C351.41 97.66 351.02 97.75 350.68 97.93C350.34 98.11 350.053 98.37 349.82 98.71V103.04C350.053 103.38 350.346 103.643 350.7 103.83C351.053 104.017 351.436 104.11 351.85 104.11ZM362.794 106.24C361.614 106.24 360.714 105.88 360.094 105.16C359.474 104.44 359.164 103.387 359.164 102V95.78H361.404V101.56C361.404 102.427 361.564 103.07 361.884 103.49C362.211 103.903 362.701 104.11 363.354 104.11C364.067 104.11 364.597 103.903 364.944 103.49C365.291 103.07 365.464 102.44 365.464 101.6V95.78H367.714V106H365.464V105.04C365.151 105.44 364.771 105.74 364.324 105.94C363.884 106.14 363.374 106.24 362.794 106.24ZM375.645 106.24C375.165 106.24 374.741 106.153 374.375 105.98C374.015 105.807 373.671 105.533 373.345 105.16V106H371.105V92.59L373.345 91.56V96.6C373.625 96.26 373.965 96 374.365 95.82C374.771 95.6333 375.211 95.54 375.685 95.54C376.531 95.54 377.271 95.7633 377.905 96.21C378.545 96.65 379.041 97.27 379.395 98.07C379.748 98.87 379.925 99.8067 379.925 100.88C379.925 102.573 379.548 103.89 378.795 104.83C378.041 105.77 376.991 106.24 375.645 106.24ZM375.365 104.11C376.098 104.11 376.661 103.83 377.055 103.27C377.455 102.71 377.655 101.913 377.655 100.88C377.655 99.8333 377.458 99.0367 377.065 98.49C376.671 97.9367 376.105 97.66 375.365 97.66C374.958 97.66 374.568 97.76 374.195 97.96C373.828 98.1533 373.545 98.4067 373.345 98.72V103.05C373.565 103.383 373.845 103.643 374.185 103.83C374.525 104.017 374.918 104.11 375.365 104.11ZM382.85 106V92.59L385.09 91.56V106H382.85ZM388.595 106V95.78H390.835V106H388.595ZM389.705 94.3C389.338 94.3 389.025 94.17 388.765 93.91C388.505 93.65 388.375 93.3367 388.375 92.97C388.375 92.5967 388.502 92.28 388.755 92.02C389.015 91.7533 389.332 91.62 389.705 91.62C390.092 91.62 390.412 91.75 390.665 92.01C390.925 92.27 391.055 92.59 391.055 92.97C391.055 93.3433 390.925 93.66 390.665 93.92C390.405 94.1733 390.085 94.3 389.705 94.3ZM397.464 106.24C396.697 106.24 395.96 106.077 395.254 105.75C394.547 105.417 393.98 104.973 393.554 104.42L395.054 103.14C395.407 103.507 395.804 103.797 396.244 104.01C396.684 104.223 397.114 104.33 397.534 104.33C398.067 104.33 398.48 104.237 398.774 104.05C399.067 103.857 399.214 103.587 399.214 103.24C399.214 103.027 399.147 102.833 399.014 102.66C398.88 102.48 398.647 102.303 398.314 102.13C397.98 101.957 397.52 101.76 396.934 101.54C395.787 101.12 394.974 100.667 394.494 100.18C394.014 99.6867 393.774 99.07 393.774 98.33C393.774 97.4967 394.107 96.8233 394.774 96.31C395.44 95.7967 396.307 95.54 397.374 95.54C398.1 95.54 398.77 95.68 399.384 95.96C400.004 96.2333 400.537 96.63 400.984 97.15L399.494 98.38C398.887 97.76 398.167 97.45 397.334 97.45C396.887 97.45 396.53 97.5367 396.264 97.71C395.997 97.8767 395.864 98.1 395.864 98.38C395.864 98.66 396.017 98.91 396.324 99.13C396.637 99.3433 397.21 99.5933 398.044 99.88C398.804 100.133 399.424 100.417 399.904 100.73C400.39 101.043 400.744 101.403 400.964 101.81C401.19 102.217 401.304 102.687 401.304 103.22C401.304 104.16 400.96 104.9 400.274 105.44C399.594 105.973 398.657 106.24 397.464 106.24ZM404.131 106V92.59L406.371 91.56V96.79C406.691 96.3767 407.078 96.0667 407.531 95.86C407.985 95.6467 408.498 95.54 409.071 95.54C409.891 95.54 410.568 95.71 411.101 96.05C411.635 96.39 412.031 96.88 412.291 97.52C412.551 98.1533 412.681 98.91 412.681 99.79V106H410.431V100.2C410.431 99.38 410.278 98.7533 409.971 98.32C409.665 97.88 409.168 97.66 408.481 97.66C407.775 97.66 407.245 97.8667 406.891 98.28C406.545 98.6933 406.371 99.32 406.371 100.16V106H404.131ZM415.992 106V95.78H418.232V106H415.992ZM417.102 94.3C416.735 94.3 416.422 94.17 416.162 93.91C415.902 93.65 415.772 93.3367 415.772 92.97C415.772 92.5967 415.899 92.28 416.152 92.02C416.412 91.7533 416.729 91.62 417.102 91.62C417.489 91.62 417.809 91.75 418.062 92.01C418.322 92.27 418.452 92.59 418.452 92.97C418.452 93.3433 418.322 93.66 418.062 93.92C417.802 94.1733 417.482 94.3 417.102 94.3ZM421.641 106V95.78H423.881V96.78C424.201 96.36 424.584 96.05 425.031 95.85C425.484 95.6433 426.001 95.54 426.581 95.54C427.761 95.54 428.657 95.9 429.271 96.62C429.884 97.34 430.191 98.3967 430.191 99.79V106H427.941V100.2C427.941 99.3467 427.777 98.71 427.451 98.29C427.131 97.87 426.644 97.66 425.991 97.66C425.284 97.66 424.754 97.8667 424.401 98.28C424.054 98.6933 423.881 99.32 423.881 100.16V106H421.641ZM437.088 110.26L435.888 108.41C436.841 108.35 437.591 108.237 438.138 108.07C438.691 107.903 439.081 107.67 439.308 107.37C439.541 107.077 439.658 106.693 439.658 106.22V105.26C439.111 105.913 438.331 106.24 437.318 106.24C436.444 106.24 435.691 106.023 435.058 105.59C434.424 105.15 433.934 104.53 433.588 103.73C433.248 102.93 433.078 101.98 433.078 100.88C433.078 99.8 433.254 98.86 433.608 98.06C433.961 97.26 434.458 96.64 435.098 96.2C435.738 95.76 436.491 95.54 437.358 95.54C437.831 95.54 438.264 95.62 438.658 95.78C439.058 95.9333 439.391 96.1533 439.658 96.44V95.78H441.908V105.3C441.908 106.14 441.818 106.86 441.638 107.46C441.464 108.067 441.184 108.563 440.798 108.95C440.418 109.343 439.921 109.643 439.308 109.85C438.694 110.057 437.954 110.193 437.088 110.26ZM437.708 104.11C438.088 104.11 438.451 104.013 438.798 103.82C439.144 103.62 439.431 103.353 439.658 103.02V98.72C439.458 98.4067 439.178 98.1533 438.818 97.96C438.458 97.76 438.098 97.66 437.738 97.66C436.958 97.66 436.361 97.9367 435.948 98.49C435.534 99.0367 435.328 99.8333 435.328 100.88C435.328 101.553 435.424 102.13 435.618 102.61C435.811 103.09 436.084 103.46 436.438 103.72C436.791 103.98 437.214 104.11 437.708 104.11ZM450.385 110.06V95.78H452.625V96.57C453.245 95.8833 454.035 95.54 454.995 95.54C455.868 95.54 456.618 95.7567 457.245 96.19C457.878 96.6233 458.365 97.24 458.705 98.04C459.052 98.84 459.225 99.79 459.225 100.89C459.225 101.97 459.048 102.91 458.695 103.71C458.342 104.51 457.848 105.133 457.215 105.58C456.582 106.02 455.838 106.24 454.985 106.24C454.485 106.24 454.038 106.153 453.645 105.98C453.258 105.8 452.918 105.53 452.625 105.17V109.03L450.385 110.06ZM454.655 104.11C455.395 104.11 455.962 103.83 456.355 103.27C456.755 102.71 456.955 101.917 456.955 100.89C456.955 99.8767 456.752 99.0867 456.345 98.52C455.938 97.9467 455.375 97.66 454.655 97.66C454.215 97.66 453.825 97.75 453.485 97.93C453.145 98.11 452.858 98.37 452.625 98.71V103.04C452.858 103.38 453.152 103.643 453.505 103.83C453.858 104.017 454.242 104.11 454.655 104.11ZM462.17 106V92.59L464.41 91.56V106H462.17ZM470.895 106.24C469.775 106.24 468.895 105.937 468.255 105.33C467.615 104.723 467.295 103.9 467.295 102.86C467.295 102.18 467.458 101.59 467.785 101.09C468.111 100.583 468.571 100.193 469.165 99.92C469.758 99.64 470.451 99.5 471.245 99.5C471.711 99.5 472.155 99.5467 472.575 99.64C473.001 99.7267 473.381 99.86 473.715 100.04V99.38C473.715 98.7267 473.548 98.2433 473.215 97.93C472.881 97.61 472.378 97.45 471.705 97.45C471.211 97.45 470.701 97.54 470.175 97.72C469.648 97.9 469.131 98.16 468.625 98.5L467.955 96.71C468.515 96.3367 469.145 96.05 469.845 95.85C470.545 95.6433 471.248 95.54 471.955 95.54C473.268 95.54 474.251 95.86 474.905 96.5C475.565 97.1333 475.895 98.0867 475.895 99.36V106H473.715V105.14C473.355 105.493 472.931 105.767 472.445 105.96C471.958 106.147 471.441 106.24 470.895 106.24ZM471.355 104.33C471.788 104.33 472.208 104.237 472.615 104.05C473.028 103.863 473.395 103.597 473.715 103.25V101.86C473.415 101.693 473.075 101.567 472.695 101.48C472.321 101.387 471.955 101.34 471.595 101.34C470.928 101.34 470.405 101.477 470.025 101.75C469.645 102.017 469.455 102.387 469.455 102.86C469.455 103.313 469.621 103.673 469.955 103.94C470.288 104.2 470.755 104.33 471.355 104.33ZM481.659 106.24C480.886 106.24 480.302 106.02 479.909 105.58C479.516 105.14 479.319 104.497 479.319 103.65V97.75H477.769V95.78H479.319V92.63L481.559 91.56V95.78H483.939V97.75H481.559V103.16C481.559 103.527 481.629 103.8 481.769 103.98C481.916 104.153 482.139 104.24 482.439 104.24C482.926 104.24 483.456 104.08 484.029 103.76L483.779 105.78C483.466 105.933 483.136 106.047 482.789 106.12C482.442 106.2 482.066 106.24 481.659 106.24ZM487.077 106V97.75H485.597V95.78H487.077V94.16C487.077 93.3867 487.284 92.7933 487.697 92.38C488.111 91.9667 488.704 91.76 489.477 91.76C489.884 91.76 490.257 91.8 490.597 91.88C490.944 91.96 491.277 92.0867 491.597 92.26V94.1C491.317 93.98 491.057 93.89 490.817 93.83C490.584 93.77 490.357 93.74 490.137 93.74C489.857 93.74 489.651 93.8067 489.517 93.94C489.384 94.0733 489.317 94.29 489.317 94.59V95.78H491.597V97.75H489.317V106H487.077ZM497.339 106.24C495.913 106.24 494.789 105.763 493.969 104.81C493.149 103.857 492.739 102.553 492.739 100.9C492.739 99.8 492.926 98.85 493.299 98.05C493.673 97.25 494.203 96.6333 494.889 96.2C495.583 95.76 496.399 95.54 497.339 95.54C498.286 95.54 499.103 95.7567 499.789 96.19C500.476 96.6233 501.006 97.24 501.379 98.04C501.753 98.84 501.939 99.79 501.939 100.89C501.939 101.99 501.753 102.94 501.379 103.74C501.006 104.54 500.476 105.157 499.789 105.59C499.103 106.023 498.286 106.24 497.339 106.24ZM497.339 104.11C498.079 104.11 498.656 103.827 499.069 103.26C499.483 102.693 499.689 101.903 499.689 100.89C499.689 99.87 499.479 99.0767 499.059 98.51C498.646 97.9433 498.073 97.66 497.339 97.66C496.606 97.66 496.029 97.9467 495.609 98.52C495.196 99.0867 494.989 99.88 494.989 100.9C494.989 101.907 495.196 102.693 495.609 103.26C496.029 103.827 496.606 104.11 497.339 104.11ZM504.612 106V95.78H506.852V96.96C507.052 96.52 507.352 96.1733 507.752 95.92C508.159 95.6667 508.606 95.54 509.092 95.54C509.779 95.54 510.359 95.7633 510.832 96.21L510.522 98.28C510.269 98.08 510.016 97.9367 509.762 97.85C509.509 97.7633 509.229 97.72 508.922 97.72C508.496 97.72 508.129 97.8267 507.822 98.04C507.516 98.2533 507.276 98.5567 507.102 98.95C506.936 99.3433 506.852 99.81 506.852 100.35V106H504.612ZM512.762 106V95.78H515.002V96.73C515.322 96.33 515.695 96.0333 516.122 95.84C516.548 95.64 517.028 95.54 517.562 95.54C518.162 95.54 518.688 95.6667 519.142 95.92C519.595 96.1667 519.945 96.53 520.192 97.01C520.518 96.5367 520.945 96.1733 521.472 95.92C522.005 95.6667 522.598 95.54 523.252 95.54C524.452 95.54 525.375 95.88 526.022 96.56C526.668 97.2333 526.992 98.2033 526.992 99.47V106H524.742V100.21C524.742 99.3567 524.588 98.72 524.282 98.3C523.982 97.8733 523.528 97.66 522.922 97.66C522.508 97.66 522.155 97.7567 521.862 97.95C521.575 98.1433 521.358 98.43 521.212 98.81C521.065 99.19 520.992 99.6533 520.992 100.2V106H518.742V100.21C518.742 99.3433 518.592 98.7033 518.292 98.29C517.998 97.87 517.545 97.66 516.932 97.66C516.298 97.66 515.818 97.87 515.492 98.29C515.165 98.71 515.002 99.3333 515.002 100.16V106H512.762Z" fill="white"/>
<path d="M285.625 125.12C285.108 125.12 284.667 125.02 284.3 124.82C283.933 124.617 283.635 124.343 283.405 124C283.175 123.653 283.005 123.265 282.895 122.835C282.788 122.402 282.735 121.957 282.735 121.5C282.735 121.04 282.792 120.595 282.905 120.165C283.022 119.732 283.197 119.343 283.43 119C283.667 118.657 283.967 118.385 284.33 118.185C284.693 117.982 285.125 117.88 285.625 117.88C286.025 117.88 286.362 117.935 286.635 118.045C286.908 118.155 287.135 118.298 287.315 118.475C287.498 118.648 287.652 118.83 287.775 119.02L287.15 119.39C286.993 119.163 286.798 118.967 286.565 118.8C286.332 118.63 286.018 118.545 285.625 118.545C285.222 118.545 284.882 118.633 284.605 118.81C284.328 118.987 284.107 119.222 283.94 119.515C283.773 119.805 283.652 120.123 283.575 120.47C283.502 120.817 283.465 121.16 283.465 121.5C283.465 121.88 283.507 122.247 283.59 122.6C283.673 122.953 283.802 123.268 283.975 123.545C284.152 123.822 284.375 124.042 284.645 124.205C284.918 124.365 285.245 124.445 285.625 124.445C285.962 124.445 286.253 124.37 286.5 124.22C286.75 124.07 286.943 123.855 287.08 123.575C287.217 123.292 287.285 122.952 287.285 122.555V122.33H285.95V121.685H288.02V122.355C288.02 122.975 287.915 123.49 287.705 123.9C287.495 124.307 287.208 124.612 286.845 124.815C286.485 125.018 286.078 125.12 285.625 125.12ZM289.85 125V119.89H290.55V120.7C290.677 120.4 290.852 120.17 291.075 120.01C291.302 119.85 291.564 119.77 291.86 119.77C292.167 119.77 292.417 119.852 292.61 120.015L292.505 120.68C292.405 120.61 292.295 120.558 292.175 120.525C292.059 120.492 291.932 120.475 291.795 120.475C291.549 120.475 291.332 120.545 291.145 120.685C290.959 120.825 290.812 121.02 290.705 121.27C290.602 121.517 290.55 121.805 290.55 122.135V125H289.85ZM295.429 125.12C294.755 125.12 294.224 124.882 293.834 124.405C293.444 123.925 293.249 123.273 293.249 122.45C293.249 121.9 293.337 121.425 293.514 121.025C293.69 120.625 293.942 120.317 294.269 120.1C294.595 119.88 294.982 119.77 295.429 119.77C295.879 119.77 296.267 119.878 296.594 120.095C296.92 120.308 297.17 120.615 297.344 121.015C297.52 121.415 297.609 121.89 297.609 122.44C297.609 122.99 297.52 123.467 297.344 123.87C297.167 124.27 296.915 124.578 296.589 124.795C296.262 125.012 295.875 125.12 295.429 125.12ZM295.429 124.46C295.889 124.46 296.247 124.282 296.504 123.925C296.764 123.568 296.894 123.073 296.894 122.44C296.894 121.803 296.764 121.308 296.504 120.955C296.247 120.602 295.889 120.425 295.429 120.425C294.962 120.425 294.6 120.602 294.344 120.955C294.09 121.305 293.964 121.803 293.964 122.45C293.964 123.087 294.092 123.582 294.349 123.935C294.605 124.285 294.965 124.46 295.429 124.46ZM299.924 125L298.614 119.89H299.309L300.154 123.49C300.177 123.58 300.197 123.67 300.214 123.76C300.234 123.847 300.252 123.933 300.269 124.02C300.289 123.933 300.31 123.845 300.334 123.755C300.357 123.665 300.38 123.577 300.404 123.49L301.454 119.89H302.019L303.064 123.49C303.09 123.583 303.115 123.675 303.139 123.765C303.165 123.855 303.189 123.945 303.209 124.035C303.225 123.945 303.242 123.855 303.259 123.765C303.279 123.675 303.3 123.583 303.324 123.49L304.164 119.89H304.854L303.549 125H302.944L301.924 121.725C301.894 121.622 301.86 121.51 301.824 121.39C301.79 121.27 301.759 121.157 301.729 121.05C301.702 121.157 301.672 121.27 301.639 121.39C301.605 121.51 301.572 121.622 301.539 121.725L300.529 125H299.924ZM309.288 126.94L310.058 124.875L308.188 119.89H308.888L310.228 123.555C310.261 123.642 310.29 123.723 310.313 123.8C310.34 123.877 310.366 123.96 310.393 124.05C310.42 123.96 310.446 123.877 310.473 123.8C310.5 123.723 310.528 123.642 310.558 123.555L311.913 119.89H312.628L309.993 126.94H309.288ZM315.78 125.12C315.107 125.12 314.575 124.882 314.185 124.405C313.795 123.925 313.6 123.273 313.6 122.45C313.6 121.9 313.688 121.425 313.865 121.025C314.042 120.625 314.293 120.317 314.62 120.1C314.947 119.88 315.333 119.77 315.78 119.77C316.23 119.77 316.618 119.878 316.945 120.095C317.272 120.308 317.522 120.615 317.695 121.015C317.872 121.415 317.96 121.89 317.96 122.44C317.96 122.99 317.872 123.467 317.695 123.87C317.518 124.27 317.267 124.578 316.94 124.795C316.613 125.012 316.227 125.12 315.78 125.12ZM315.78 124.46C316.24 124.46 316.598 124.282 316.855 123.925C317.115 123.568 317.245 123.073 317.245 122.44C317.245 121.803 317.115 121.308 316.855 120.955C316.598 120.602 316.24 120.425 315.78 120.425C315.313 120.425 314.952 120.602 314.695 120.955C314.442 121.305 314.315 121.803 314.315 122.45C314.315 123.087 314.443 123.582 314.7 123.935C314.957 124.285 315.317 124.46 315.78 124.46ZM321.273 125.12C320.669 125.12 320.219 124.937 319.923 124.57C319.629 124.203 319.483 123.645 319.483 122.895V119.89H320.183V123.01C320.183 123.49 320.283 123.853 320.483 124.1C320.683 124.347 320.973 124.47 321.353 124.47C321.776 124.47 322.094 124.342 322.308 124.085C322.524 123.825 322.633 123.445 322.633 122.945V119.89H323.333V125H322.633V124.385C322.479 124.632 322.289 124.817 322.063 124.94C321.839 125.06 321.576 125.12 321.273 125.12ZM325.287 125V119.89H325.987V120.7C326.113 120.4 326.288 120.17 326.512 120.01C326.738 119.85 327 119.77 327.297 119.77C327.603 119.77 327.853 119.852 328.047 120.015L327.942 120.68C327.842 120.61 327.732 120.558 327.612 120.525C327.495 120.492 327.368 120.475 327.232 120.475C326.985 120.475 326.768 120.545 326.582 120.685C326.395 120.825 326.248 121.02 326.142 121.27C326.038 121.517 325.987 121.805 325.987 122.135V125H325.287ZM333.089 125.12C332.549 125.12 332.125 124.97 331.819 124.67C331.512 124.367 331.359 123.95 331.359 123.42C331.359 123.08 331.434 122.785 331.584 122.535C331.737 122.285 331.952 122.093 332.229 121.96C332.509 121.823 332.839 121.755 333.219 121.755C333.469 121.755 333.707 121.787 333.934 121.85C334.164 121.913 334.385 122.008 334.599 122.135V121.645C334.599 121.212 334.504 120.893 334.314 120.69C334.127 120.487 333.835 120.385 333.439 120.385C333.202 120.385 332.95 120.43 332.684 120.52C332.42 120.607 332.17 120.73 331.934 120.89L331.729 120.3C331.999 120.13 332.29 120 332.604 119.91C332.917 119.817 333.224 119.77 333.524 119.77C334.097 119.77 334.53 119.92 334.824 120.22C335.117 120.52 335.264 120.962 335.264 121.545V125H334.599V124.42C334.395 124.643 334.162 124.817 333.899 124.94C333.639 125.06 333.369 125.12 333.089 125.12ZM333.179 124.505C333.435 124.505 333.685 124.438 333.929 124.305C334.172 124.168 334.395 123.973 334.599 123.72V122.765C334.402 122.638 334.189 122.542 333.959 122.475C333.732 122.405 333.512 122.37 333.299 122.37C332.915 122.37 332.609 122.467 332.379 122.66C332.152 122.85 332.039 123.105 332.039 123.425C332.039 123.755 332.14 124.018 332.344 124.215C332.547 124.408 332.825 124.505 333.179 124.505ZM338.733 125.12C338.13 125.12 337.68 124.937 337.383 124.57C337.09 124.203 336.943 123.645 336.943 122.895V119.89H337.643V123.01C337.643 123.49 337.743 123.853 337.943 124.1C338.143 124.347 338.433 124.47 338.813 124.47C339.236 124.47 339.555 124.342 339.768 124.085C339.985 123.825 340.093 123.445 340.093 122.945V119.89H340.793V125H340.093V124.385C339.94 124.632 339.75 124.817 339.523 124.94C339.3 125.06 339.036 125.12 338.733 125.12ZM344.39 125.12C343.756 125.12 343.255 124.88 342.885 124.4C342.518 123.917 342.335 123.263 342.335 122.44C342.335 121.887 342.418 121.412 342.585 121.015C342.751 120.615 342.99 120.308 343.3 120.095C343.613 119.878 343.985 119.77 344.415 119.77C344.945 119.77 345.393 119.973 345.76 120.38V118.115L346.46 117.78V125H345.76V124.49C345.403 124.91 344.946 125.12 344.39 125.12ZM344.495 124.46C344.745 124.46 344.983 124.388 345.21 124.245C345.436 124.098 345.62 123.9 345.76 123.65V121.2C345.61 120.96 345.421 120.772 345.195 120.635C344.971 120.495 344.738 120.425 344.495 120.425C344.035 120.425 343.678 120.6 343.425 120.95C343.175 121.297 343.05 121.793 343.05 122.44C343.05 122.837 343.111 123.187 343.235 123.49C343.358 123.793 343.528 124.032 343.745 124.205C343.961 124.375 344.211 124.46 344.495 124.46ZM348.365 125V119.89H349.065V125H348.365ZM348.71 118.865C348.584 118.865 348.475 118.82 348.385 118.73C348.299 118.64 348.255 118.532 348.255 118.405C348.255 118.272 348.299 118.16 348.385 118.07C348.475 117.977 348.584 117.93 348.71 117.93C348.844 117.93 348.954 117.977 349.04 118.07C349.13 118.16 349.175 118.272 349.175 118.405C349.175 118.532 349.13 118.64 349.04 118.73C348.954 118.82 348.844 118.865 348.71 118.865ZM352.395 125.12C351.855 125.12 351.432 124.97 351.125 124.67C350.818 124.367 350.665 123.95 350.665 123.42C350.665 123.08 350.74 122.785 350.89 122.535C351.043 122.285 351.258 122.093 351.535 121.96C351.815 121.823 352.145 121.755 352.525 121.755C352.775 121.755 353.013 121.787 353.24 121.85C353.47 121.913 353.692 122.008 353.905 122.135V121.645C353.905 121.212 353.81 120.893 353.62 120.69C353.433 120.487 353.142 120.385 352.745 120.385C352.508 120.385 352.257 120.43 351.99 120.52C351.727 120.607 351.477 120.73 351.24 120.89L351.035 120.3C351.305 120.13 351.597 120 351.91 119.91C352.223 119.817 352.53 119.77 352.83 119.77C353.403 119.77 353.837 119.92 354.13 120.22C354.423 120.52 354.57 120.962 354.57 121.545V125H353.905V124.42C353.702 124.643 353.468 124.817 353.205 124.94C352.945 125.06 352.675 125.12 352.395 125.12ZM352.485 124.505C352.742 124.505 352.992 124.438 353.235 124.305C353.478 124.168 353.702 123.973 353.905 123.72V122.765C353.708 122.638 353.495 122.542 353.265 122.475C353.038 122.405 352.818 122.37 352.605 122.37C352.222 122.37 351.915 122.467 351.685 122.66C351.458 122.85 351.345 123.105 351.345 123.425C351.345 123.755 351.447 124.018 351.65 124.215C351.853 124.408 352.132 124.505 352.485 124.505ZM356.426 125V119.89H357.126V120.545C357.27 120.295 357.46 120.103 357.696 119.97C357.936 119.837 358.208 119.77 358.511 119.77C359.108 119.77 359.551 119.955 359.841 120.325C360.131 120.692 360.276 121.25 360.276 122V125H359.576V121.875C359.576 121.398 359.476 121.037 359.276 120.79C359.076 120.54 358.786 120.415 358.406 120.415C357.986 120.415 357.668 120.543 357.451 120.8C357.235 121.057 357.126 121.435 357.126 121.935V125H356.426ZM363.988 125.12C363.568 125.12 363.207 125.013 362.903 124.8C362.6 124.583 362.367 124.277 362.203 123.88C362.043 123.48 361.963 123.003 361.963 122.45C361.963 121.893 362.047 121.415 362.213 121.015C362.38 120.615 362.618 120.308 362.928 120.095C363.238 119.878 363.608 119.77 364.038 119.77C364.448 119.77 364.798 119.87 365.088 120.07C365.382 120.267 365.595 120.55 365.728 120.92L365.063 121.165C364.977 120.928 364.845 120.747 364.668 120.62C364.492 120.493 364.285 120.43 364.048 120.43C363.605 120.43 363.267 120.602 363.033 120.945C362.803 121.288 362.688 121.79 362.688 122.45C362.688 123.083 362.803 123.577 363.033 123.93C363.263 124.28 363.587 124.455 364.003 124.455C364.277 124.455 364.512 124.382 364.708 124.235C364.905 124.088 365.042 123.888 365.118 123.635L365.778 123.855C365.662 124.255 365.445 124.567 365.128 124.79C364.815 125.01 364.435 125.12 363.988 125.12ZM369.19 125.12C368.737 125.12 368.345 125.008 368.015 124.785C367.688 124.558 367.437 124.243 367.26 123.84C367.083 123.437 366.995 122.97 366.995 122.44C366.995 121.877 367.087 121.397 367.27 121C367.457 120.6 367.715 120.295 368.045 120.085C368.375 119.875 368.757 119.77 369.19 119.77C369.567 119.77 369.908 119.858 370.215 120.035C370.522 120.212 370.765 120.485 370.945 120.855C371.125 121.225 371.215 121.7 371.215 122.28C371.215 122.34 371.213 122.408 371.21 122.485C371.207 122.558 371.202 122.635 371.195 122.715H367.72C367.747 123.068 367.818 123.378 367.935 123.645C368.055 123.908 368.22 124.117 368.43 124.27C368.643 124.42 368.905 124.495 369.215 124.495C369.425 124.495 369.627 124.458 369.82 124.385C370.013 124.308 370.193 124.192 370.36 124.035L370.77 124.505C370.583 124.682 370.353 124.828 370.08 124.945C369.81 125.062 369.513 125.12 369.19 125.12ZM367.71 122.1H370.5C370.5 121.783 370.452 121.495 370.355 121.235C370.262 120.975 370.117 120.768 369.92 120.615C369.727 120.462 369.483 120.385 369.19 120.385C368.793 120.385 368.455 120.522 368.175 120.795C367.898 121.068 367.743 121.503 367.71 122.1ZM376.567 125.12C376.027 125.12 375.603 124.97 375.297 124.67C374.99 124.367 374.837 123.95 374.837 123.42C374.837 123.08 374.912 122.785 375.062 122.535C375.215 122.285 375.43 122.093 375.707 121.96C375.987 121.823 376.317 121.755 376.697 121.755C376.947 121.755 377.185 121.787 377.412 121.85C377.642 121.913 377.863 122.008 378.077 122.135V121.645C378.077 121.212 377.982 120.893 377.792 120.69C377.605 120.487 377.313 120.385 376.917 120.385C376.68 120.385 376.428 120.43 376.162 120.52C375.898 120.607 375.648 120.73 375.412 120.89L375.207 120.3C375.477 120.13 375.768 120 376.082 119.91C376.395 119.817 376.702 119.77 377.002 119.77C377.575 119.77 378.008 119.92 378.302 120.22C378.595 120.52 378.742 120.962 378.742 121.545V125H378.077V124.42C377.873 124.643 377.64 124.817 377.377 124.94C377.117 125.06 376.847 125.12 376.567 125.12ZM376.657 124.505C376.913 124.505 377.163 124.438 377.407 124.305C377.65 124.168 377.873 123.973 378.077 123.72V122.765C377.88 122.638 377.667 122.542 377.437 122.475C377.21 122.405 376.99 122.37 376.777 122.37C376.393 122.37 376.087 122.467 375.857 122.66C375.63 122.85 375.517 123.105 375.517 123.425C375.517 123.755 375.618 124.018 375.822 124.215C376.025 124.408 376.303 124.505 376.657 124.505ZM380.598 125V119.89H381.298V120.545C381.441 120.295 381.631 120.103 381.868 119.97C382.108 119.837 382.38 119.77 382.683 119.77C383.28 119.77 383.723 119.955 384.013 120.325C384.303 120.692 384.448 121.25 384.448 122V125H383.748V121.875C383.748 121.398 383.648 121.037 383.448 120.79C383.248 120.54 382.958 120.415 382.578 120.415C382.158 120.415 381.84 120.543 381.623 120.8C381.406 121.057 381.298 121.435 381.298 121.935V125H380.598ZM388.19 125.12C387.557 125.12 387.055 124.88 386.685 124.4C386.318 123.917 386.135 123.263 386.135 122.44C386.135 121.887 386.218 121.412 386.385 121.015C386.552 120.615 386.79 120.308 387.1 120.095C387.413 119.878 387.785 119.77 388.215 119.77C388.745 119.77 389.193 119.973 389.56 120.38V118.115L390.26 117.78V125H389.56V124.49C389.203 124.91 388.747 125.12 388.19 125.12ZM388.295 124.46C388.545 124.46 388.783 124.388 389.01 124.245C389.237 124.098 389.42 123.9 389.56 123.65V121.2C389.41 120.96 389.222 120.772 388.995 120.635C388.772 120.495 388.538 120.425 388.295 120.425C387.835 120.425 387.478 120.6 387.225 120.95C386.975 121.297 386.85 121.793 386.85 122.44C386.85 122.837 386.912 123.187 387.035 123.49C387.158 123.793 387.328 124.032 387.545 124.205C387.762 124.375 388.012 124.46 388.295 124.46ZM396.655 125.12C396.372 125.12 396.119 125.068 395.895 124.965C395.675 124.858 395.46 124.692 395.25 124.465V125H394.55V118.115L395.25 117.78V120.435C395.414 120.225 395.615 120.062 395.855 119.945C396.095 119.828 396.349 119.77 396.615 119.77C397.039 119.77 397.404 119.878 397.71 120.095C398.017 120.312 398.254 120.62 398.42 121.02C398.59 121.42 398.675 121.893 398.675 122.44C398.675 123.29 398.499 123.95 398.145 124.42C397.792 124.887 397.295 125.12 396.655 125.12ZM396.565 124.46C397.009 124.46 397.35 124.285 397.59 123.935C397.83 123.582 397.95 123.083 397.95 122.44C397.95 121.783 397.83 121.283 397.59 120.94C397.354 120.597 397.007 120.425 396.55 120.425C396.304 120.425 396.057 120.5 395.81 120.65C395.567 120.8 395.38 120.992 395.25 121.225V123.65C395.394 123.897 395.582 124.093 395.815 124.24C396.049 124.387 396.299 124.46 396.565 124.46ZM401.986 125.12C401.383 125.12 400.933 124.937 400.636 124.57C400.343 124.203 400.196 123.645 400.196 122.895V119.89H400.896V123.01C400.896 123.49 400.996 123.853 401.196 124.1C401.396 124.347 401.686 124.47 402.066 124.47C402.49 124.47 402.808 124.342 403.021 124.085C403.238 123.825 403.346 123.445 403.346 122.945V119.89H404.046V125H403.346V124.385C403.193 124.632 403.003 124.817 402.776 124.94C402.553 125.06 402.29 125.12 401.986 125.12ZM405.962 125V119.89H406.662V125H405.962ZM406.307 118.865C406.18 118.865 406.072 118.82 405.982 118.73C405.895 118.64 405.852 118.532 405.852 118.405C405.852 118.272 405.895 118.16 405.982 118.07C406.072 117.977 406.18 117.93 406.307 117.93C406.44 117.93 406.55 117.977 406.637 118.07C406.727 118.16 406.772 118.272 406.772 118.405C406.772 118.532 406.727 118.64 406.637 118.73C406.55 118.82 406.44 118.865 406.307 118.865ZM408.596 125V118.115L409.296 117.78V125H408.596ZM412.96 125.12C412.327 125.12 411.825 124.88 411.455 124.4C411.088 123.917 410.905 123.263 410.905 122.44C410.905 121.887 410.988 121.412 411.155 121.015C411.322 120.615 411.56 120.308 411.87 120.095C412.183 119.878 412.555 119.77 412.985 119.77C413.515 119.77 413.963 119.973 414.33 120.38V118.115L415.03 117.78V125H414.33V124.49C413.973 124.91 413.517 125.12 412.96 125.12ZM413.065 124.46C413.315 124.46 413.553 124.388 413.78 124.245C414.007 124.098 414.19 123.9 414.33 123.65V121.2C414.18 120.96 413.992 120.772 413.765 120.635C413.542 120.495 413.308 120.425 413.065 120.425C412.605 120.425 412.248 120.6 411.995 120.95C411.745 121.297 411.62 121.793 411.62 122.44C411.62 122.837 411.682 123.187 411.805 123.49C411.928 123.793 412.098 124.032 412.315 124.205C412.532 124.375 412.782 124.46 413.065 124.46ZM419.92 126.94L420.69 124.875L418.82 119.89H419.52L420.86 123.555C420.894 123.642 420.922 123.723 420.945 123.8C420.972 123.877 420.999 123.96 421.025 124.05C421.052 123.96 421.079 123.877 421.105 123.8C421.132 123.723 421.16 123.642 421.19 123.555L422.545 119.89H423.26L420.625 126.94H419.92ZM426.412 125.12C425.739 125.12 425.207 124.882 424.817 124.405C424.427 123.925 424.232 123.273 424.232 122.45C424.232 121.9 424.321 121.425 424.497 121.025C424.674 120.625 424.926 120.317 425.252 120.1C425.579 119.88 425.966 119.77 426.412 119.77C426.862 119.77 427.251 119.878 427.577 120.095C427.904 120.308 428.154 120.615 428.327 121.015C428.504 121.415 428.592 121.89 428.592 122.44C428.592 122.99 428.504 123.467 428.327 123.87C428.151 124.27 427.899 124.578 427.572 124.795C427.246 125.012 426.859 125.12 426.412 125.12ZM426.412 124.46C426.872 124.46 427.231 124.282 427.487 123.925C427.747 123.568 427.877 123.073 427.877 122.44C427.877 121.803 427.747 121.308 427.487 120.955C427.231 120.602 426.872 120.425 426.412 120.425C425.946 120.425 425.584 120.602 425.327 120.955C425.074 121.305 424.947 121.803 424.947 122.45C424.947 123.087 425.076 123.582 425.332 123.935C425.589 124.285 425.949 124.46 426.412 124.46ZM431.905 125.12C431.302 125.12 430.852 124.937 430.555 124.57C430.262 124.203 430.115 123.645 430.115 122.895V119.89H430.815V123.01C430.815 123.49 430.915 123.853 431.115 124.1C431.315 124.347 431.605 124.47 431.985 124.47C432.408 124.47 432.727 124.342 432.94 124.085C433.157 123.825 433.265 123.445 433.265 122.945V119.89H433.965V125H433.265V124.385C433.112 124.632 432.922 124.817 432.695 124.94C432.472 125.06 432.208 125.12 431.905 125.12ZM435.919 125V119.89H436.619V120.7C436.746 120.4 436.921 120.17 437.144 120.01C437.371 119.85 437.633 119.77 437.929 119.77C438.236 119.77 438.486 119.852 438.679 120.015L438.574 120.68C438.474 120.61 438.364 120.558 438.244 120.525C438.128 120.492 438.001 120.475 437.864 120.475C437.618 120.475 437.401 120.545 437.214 120.685C437.028 120.825 436.881 121.02 436.774 121.27C436.671 121.517 436.619 121.805 436.619 122.135V125H435.919ZM444.156 125.12C443.483 125.12 442.951 124.882 442.561 124.405C442.171 123.925 441.976 123.273 441.976 122.45C441.976 121.9 442.064 121.425 442.241 121.025C442.418 120.625 442.669 120.317 442.996 120.1C443.323 119.88 443.709 119.77 444.156 119.77C444.606 119.77 444.994 119.878 445.321 120.095C445.648 120.308 445.898 120.615 446.071 121.015C446.248 121.415 446.336 121.89 446.336 122.44C446.336 122.99 446.248 123.467 446.071 123.87C445.894 124.27 445.643 124.578 445.316 124.795C444.989 125.012 444.603 125.12 444.156 125.12ZM444.156 124.46C444.616 124.46 444.974 124.282 445.231 123.925C445.491 123.568 445.621 123.073 445.621 122.44C445.621 121.803 445.491 121.308 445.231 120.955C444.974 120.602 444.616 120.425 444.156 120.425C443.689 120.425 443.328 120.602 443.071 120.955C442.818 121.305 442.691 121.803 442.691 122.45C442.691 123.087 442.819 123.582 443.076 123.935C443.333 124.285 443.693 124.46 444.156 124.46ZM447.87 125V119.89H448.57V120.545C448.713 120.295 448.903 120.103 449.14 119.97C449.38 119.837 449.651 119.77 449.955 119.77C450.551 119.77 450.995 119.955 451.285 120.325C451.575 120.692 451.72 121.25 451.72 122V125H451.02V121.875C451.02 121.398 450.92 121.037 450.72 120.79C450.52 120.54 450.23 120.415 449.85 120.415C449.43 120.415 449.111 120.543 448.895 120.8C448.678 121.057 448.57 121.435 448.57 121.935V125H447.87ZM453.6 125V118.115L454.3 117.78V125H453.6ZM456.244 125V119.89H456.944V125H456.244ZM456.589 118.865C456.462 118.865 456.354 118.82 456.264 118.73C456.177 118.64 456.134 118.532 456.134 118.405C456.134 118.272 456.177 118.16 456.264 118.07C456.354 117.977 456.462 117.93 456.589 117.93C456.722 117.93 456.832 117.977 456.919 118.07C457.009 118.16 457.054 118.272 457.054 118.405C457.054 118.532 457.009 118.64 456.919 118.73C456.832 118.82 456.722 118.865 456.589 118.865ZM458.843 125V119.89H459.543V120.545C459.687 120.295 459.877 120.103 460.113 119.97C460.353 119.837 460.625 119.77 460.928 119.77C461.525 119.77 461.968 119.955 462.258 120.325C462.548 120.692 462.693 121.25 462.693 122V125H461.993V121.875C461.993 121.398 461.893 121.037 461.693 120.79C461.493 120.54 461.203 120.415 460.823 120.415C460.403 120.415 460.085 120.543 459.868 120.8C459.652 121.057 459.543 121.435 459.543 121.935V125H458.843ZM466.575 125.12C466.122 125.12 465.73 125.008 465.4 124.785C465.074 124.558 464.822 124.243 464.645 123.84C464.469 123.437 464.38 122.97 464.38 122.44C464.38 121.877 464.472 121.397 464.655 121C464.842 120.6 465.1 120.295 465.43 120.085C465.76 119.875 466.142 119.77 466.575 119.77C466.952 119.77 467.294 119.858 467.6 120.035C467.907 120.212 468.15 120.485 468.33 120.855C468.51 121.225 468.6 121.7 468.6 122.28C468.6 122.34 468.599 122.408 468.595 122.485C468.592 122.558 468.587 122.635 468.58 122.715H465.105C465.132 123.068 465.204 123.378 465.32 123.645C465.44 123.908 465.605 124.117 465.815 124.27C466.029 124.42 466.29 124.495 466.6 124.495C466.81 124.495 467.012 124.458 467.205 124.385C467.399 124.308 467.579 124.192 467.745 124.035L468.155 124.505C467.969 124.682 467.739 124.828 467.465 124.945C467.195 125.062 466.899 125.12 466.575 125.12ZM465.095 122.1H467.885C467.885 121.783 467.837 121.495 467.74 121.235C467.647 120.975 467.502 120.768 467.305 120.615C467.112 120.462 466.869 120.385 466.575 120.385C466.179 120.385 465.84 120.522 465.56 120.795C465.284 121.068 465.129 121.503 465.095 122.1ZM474.627 125.12C474.344 125.12 474.091 125.068 473.867 124.965C473.647 124.858 473.432 124.692 473.222 124.465V125H472.522V118.115L473.222 117.78V120.435C473.386 120.225 473.587 120.062 473.827 119.945C474.067 119.828 474.321 119.77 474.587 119.77C475.011 119.77 475.376 119.878 475.682 120.095C475.989 120.312 476.226 120.62 476.392 121.02C476.562 121.42 476.647 121.893 476.647 122.44C476.647 123.29 476.471 123.95 476.117 124.42C475.764 124.887 475.267 125.12 474.627 125.12ZM474.537 124.46C474.981 124.46 475.322 124.285 475.562 123.935C475.802 123.582 475.922 123.083 475.922 122.44C475.922 121.783 475.802 121.283 475.562 120.94C475.326 120.597 474.979 120.425 474.522 120.425C474.276 120.425 474.029 120.5 473.782 120.65C473.539 120.8 473.352 120.992 473.222 121.225V123.65C473.366 123.897 473.554 124.093 473.787 124.24C474.021 124.387 474.271 124.46 474.537 124.46ZM478.179 125V119.89H478.879V120.7C479.006 120.4 479.181 120.17 479.404 120.01C479.631 119.85 479.892 119.77 480.189 119.77C480.496 119.77 480.746 119.852 480.939 120.015L480.834 120.68C480.734 120.61 480.624 120.558 480.504 120.525C480.387 120.492 480.261 120.475 480.124 120.475C479.877 120.475 479.661 120.545 479.474 120.685C479.287 120.825 479.141 121.02 479.034 121.27C478.931 121.517 478.879 121.805 478.879 122.135V125H478.179ZM483.381 125.12C482.841 125.12 482.418 124.97 482.111 124.67C481.804 124.367 481.651 123.95 481.651 123.42C481.651 123.08 481.726 122.785 481.876 122.535C482.029 122.285 482.244 122.093 482.521 121.96C482.801 121.823 483.131 121.755 483.511 121.755C483.761 121.755 483.999 121.787 484.226 121.85C484.456 121.913 484.678 122.008 484.891 122.135V121.645C484.891 121.212 484.796 120.893 484.606 120.69C484.419 120.487 484.128 120.385 483.731 120.385C483.494 120.385 483.243 120.43 482.976 120.52C482.713 120.607 482.463 120.73 482.226 120.89L482.021 120.3C482.291 120.13 482.583 120 482.896 119.91C483.209 119.817 483.516 119.77 483.816 119.77C484.389 119.77 484.823 119.92 485.116 120.22C485.409 120.52 485.556 120.962 485.556 121.545V125H484.891V124.42C484.688 124.643 484.454 124.817 484.191 124.94C483.931 125.06 483.661 125.12 483.381 125.12ZM483.471 124.505C483.728 124.505 483.978 124.438 484.221 124.305C484.464 124.168 484.688 123.973 484.891 123.72V122.765C484.694 122.638 484.481 122.542 484.251 122.475C484.024 122.405 483.804 122.37 483.591 122.37C483.208 122.37 482.901 122.467 482.671 122.66C482.444 122.85 482.331 123.105 482.331 123.425C482.331 123.755 482.433 124.018 482.636 124.215C482.839 124.408 483.118 124.505 483.471 124.505ZM487.412 125V119.89H488.112V120.545C488.256 120.295 488.446 120.103 488.682 119.97C488.922 119.837 489.194 119.77 489.497 119.77C490.094 119.77 490.537 119.955 490.827 120.325C491.117 120.692 491.262 121.25 491.262 122V125H490.562V121.875C490.562 121.398 490.462 121.037 490.262 120.79C490.062 120.54 489.772 120.415 489.392 120.415C488.972 120.415 488.654 120.543 488.437 120.8C488.221 121.057 488.112 121.435 488.112 121.935V125H487.412ZM495.004 125.12C494.371 125.12 493.869 124.88 493.499 124.4C493.132 123.917 492.949 123.263 492.949 122.44C492.949 121.887 493.032 121.412 493.199 121.015C493.366 120.615 493.604 120.308 493.914 120.095C494.227 119.878 494.599 119.77 495.029 119.77C495.559 119.77 496.007 119.973 496.374 120.38V118.115L497.074 117.78V125H496.374V124.49C496.017 124.91 495.561 125.12 495.004 125.12ZM495.109 124.46C495.359 124.46 495.597 124.388 495.824 124.245C496.051 124.098 496.234 123.9 496.374 123.65V121.2C496.224 120.96 496.036 120.772 495.809 120.635C495.586 120.495 495.352 120.425 495.109 120.425C494.649 120.425 494.292 120.6 494.039 120.95C493.789 121.297 493.664 121.793 493.664 122.44C493.664 122.837 493.726 123.187 493.849 123.49C493.972 123.793 494.142 124.032 494.359 124.205C494.576 124.375 494.826 124.46 495.109 124.46Z" fill="white"/>
<path d="M157.408 68V56.8H161.952C162.853 56.8 163.563 56.9467 164.08 57.24C164.603 57.528 164.973 57.9013 165.192 58.36C165.416 58.8133 165.528 59.2907 165.528 59.792C165.528 60.2987 165.405 60.76 165.16 61.176C164.92 61.5867 164.549 61.9013 164.048 62.12C164.464 62.2587 164.811 62.4613 165.088 62.728C165.365 62.9947 165.573 63.3013 165.712 63.648C165.851 63.9947 165.92 64.3547 165.92 64.728C165.92 65.1173 165.853 65.5067 165.72 65.896C165.592 66.28 165.384 66.632 165.096 66.952C164.808 67.2667 164.424 67.52 163.944 67.712C163.469 67.904 162.885 68 162.192 68H157.408ZM159.256 66.28H162.328C162.781 66.28 163.133 66.2027 163.384 66.048C163.64 65.8933 163.816 65.7013 163.912 65.472C164.013 65.2373 164.064 65 164.064 64.76C164.064 64.472 164.005 64.1973 163.888 63.936C163.771 63.6747 163.552 63.464 163.232 63.304C162.912 63.1387 162.451 63.056 161.848 63.056H159.256V66.28ZM159.256 61.384H161.696C162.363 61.384 162.859 61.2507 163.184 60.984C163.509 60.7173 163.672 60.3627 163.672 59.92C163.672 59.696 163.629 59.4747 163.544 59.256C163.464 59.0373 163.304 58.8587 163.064 58.72C162.824 58.576 162.472 58.504 162.008 58.504H159.256V61.384ZM168.379 68V57.272L170.171 56.448V68H168.379ZM176.191 68.192C175.05 68.192 174.151 67.8107 173.495 67.048C172.839 66.2853 172.511 65.2427 172.511 63.92C172.511 63.04 172.661 62.28 172.959 61.64C173.258 61 173.682 60.5067 174.231 60.16C174.786 59.808 175.439 59.632 176.191 59.632C176.949 59.632 177.602 59.8053 178.151 60.152C178.701 60.4987 179.125 60.992 179.423 61.632C179.722 62.272 179.871 63.032 179.871 63.912C179.871 64.792 179.722 65.552 179.423 66.192C179.125 66.832 178.701 67.3253 178.151 67.672C177.602 68.0187 176.949 68.192 176.191 68.192ZM176.191 66.488C176.783 66.488 177.245 66.2613 177.575 65.808C177.906 65.3547 178.071 64.7227 178.071 63.912C178.071 63.096 177.903 62.4613 177.567 62.008C177.237 61.5547 176.778 61.328 176.191 61.328C175.605 61.328 175.143 61.5573 174.807 62.016C174.477 62.4693 174.311 63.104 174.311 63.92C174.311 64.7253 174.477 65.3547 174.807 65.808C175.143 66.2613 175.605 66.488 176.191 66.488ZM185.036 71.408L184.076 69.928C184.838 69.88 185.438 69.7893 185.876 69.656C186.318 69.5227 186.63 69.336 186.812 69.096C186.998 68.8613 187.092 68.5547 187.092 68.176V67.408C186.654 67.9307 186.03 68.192 185.22 68.192C184.521 68.192 183.918 68.0187 183.412 67.672C182.905 67.32 182.513 66.824 182.236 66.184C181.964 65.544 181.828 64.784 181.828 63.904C181.828 63.04 181.969 62.288 182.252 61.648C182.534 61.008 182.932 60.512 183.444 60.16C183.956 59.808 184.558 59.632 185.252 59.632C185.63 59.632 185.977 59.696 186.292 59.824C186.612 59.9467 186.878 60.1227 187.092 60.352V59.824H188.892V67.44C188.892 68.112 188.82 68.688 188.676 69.168C188.537 69.6533 188.313 70.0507 188.004 70.36C187.7 70.6747 187.302 70.9147 186.812 71.08C186.321 71.2453 185.729 71.3547 185.036 71.408ZM185.532 66.488C185.836 66.488 186.126 66.4107 186.404 66.256C186.681 66.096 186.91 65.8827 187.092 65.616V62.176C186.932 61.9253 186.708 61.7227 186.42 61.568C186.132 61.408 185.844 61.328 185.556 61.328C184.932 61.328 184.454 61.5493 184.124 61.992C183.793 62.4293 183.628 63.0667 183.628 63.904C183.628 64.4427 183.705 64.904 183.86 65.288C184.014 65.672 184.233 65.968 184.516 66.176C184.798 66.384 185.137 66.488 185.532 66.488ZM191.639 68V59.824H193.431V60.768C193.591 60.416 193.831 60.1387 194.151 59.936C194.476 59.7333 194.833 59.632 195.223 59.632C195.772 59.632 196.236 59.8107 196.615 60.168L196.367 61.824C196.164 61.664 195.961 61.5493 195.759 61.48C195.556 61.4107 195.332 61.376 195.087 61.376C194.745 61.376 194.452 61.4613 194.207 61.632C193.961 61.8027 193.769 62.0453 193.631 62.36C193.497 62.6747 193.431 63.048 193.431 63.48V68H191.639Z" fill="white"/>
<g clip-path="url(#clip0_4_79)">
<rect x="306" y="143" width="78.4207" height="27.4759" rx="13.7379" fill="white"/>
<path d="M318.593 157.929C318.791 157.929 318.953 157.914 319.079 157.884C319.211 157.848 319.316 157.803 319.394 157.749C319.472 157.689 319.526 157.62 319.556 157.542C319.586 157.464 319.601 157.377 319.601 157.281C319.601 157.077 319.505 156.909 319.313 156.777C319.121 156.639 318.791 156.492 318.323 156.336C318.119 156.264 317.915 156.183 317.711 156.093C317.507 155.997 317.324 155.88 317.162 155.742C317 155.598 316.868 155.427 316.766 155.229C316.664 155.025 316.613 154.779 316.613 154.491C316.613 154.203 316.667 153.945 316.775 153.717C316.883 153.483 317.036 153.285 317.234 153.123C317.432 152.961 317.672 152.838 317.954 152.754C318.236 152.664 318.554 152.619 318.908 152.619C319.328 152.619 319.691 152.664 319.997 152.754C320.303 152.844 320.555 152.943 320.753 153.051L320.348 154.158C320.174 154.068 319.979 153.99 319.763 153.924C319.553 153.852 319.298 153.816 318.998 153.816C318.662 153.816 318.419 153.864 318.269 153.96C318.125 154.05 318.053 154.191 318.053 154.383C318.053 154.497 318.08 154.593 318.134 154.671C318.188 154.749 318.263 154.821 318.359 154.887C318.461 154.947 318.575 155.004 318.701 155.058C318.833 155.106 318.977 155.157 319.133 155.211C319.457 155.331 319.739 155.451 319.979 155.571C320.219 155.685 320.417 155.82 320.573 155.976C320.735 156.132 320.855 156.315 320.933 156.525C321.011 156.735 321.05 156.99 321.05 157.29C321.05 157.872 320.846 158.325 320.438 158.649C320.03 158.967 319.415 159.126 318.593 159.126C318.317 159.126 318.068 159.108 317.846 159.072C317.624 159.042 317.426 159.003 317.252 158.955C317.084 158.907 316.937 158.856 316.811 158.802C316.691 158.748 316.589 158.697 316.505 158.649L316.901 157.533C317.087 157.635 317.315 157.728 317.585 157.812C317.861 157.89 318.197 157.929 318.593 157.929ZM321.995 153.087L323.336 152.871V154.266H324.947V155.382H323.336V157.047C323.336 157.329 323.384 157.554 323.48 157.722C323.582 157.89 323.783 157.974 324.083 157.974C324.227 157.974 324.374 157.962 324.524 157.938C324.68 157.908 324.821 157.869 324.947 157.821L325.136 158.865C324.974 158.931 324.794 158.988 324.596 159.036C324.398 159.084 324.155 159.108 323.867 159.108C323.501 159.108 323.198 159.06 322.958 158.964C322.718 158.862 322.526 158.724 322.382 158.55C322.238 158.37 322.136 158.154 322.076 157.902C322.022 157.65 321.995 157.371 321.995 157.065V153.087ZM327.672 158.064C327.804 158.064 327.93 158.061 328.05 158.055C328.17 158.049 328.266 158.04 328.338 158.028V157.011C328.284 156.999 328.203 156.987 328.095 156.975C327.987 156.963 327.888 156.957 327.798 156.957C327.672 156.957 327.552 156.966 327.438 156.984C327.33 156.996 327.234 157.023 327.15 157.065C327.066 157.107 327 157.164 326.952 157.236C326.904 157.308 326.88 157.398 326.88 157.506C326.88 157.716 326.949 157.863 327.087 157.947C327.231 158.025 327.426 158.064 327.672 158.064ZM327.564 154.14C327.96 154.14 328.29 154.185 328.554 154.275C328.818 154.365 329.028 154.494 329.184 154.662C329.346 154.83 329.46 155.034 329.526 155.274C329.592 155.514 329.625 155.781 329.625 156.075V158.865C329.433 158.907 329.166 158.955 328.824 159.009C328.482 159.069 328.068 159.099 327.582 159.099C327.276 159.099 326.997 159.072 326.745 159.018C326.499 158.964 326.286 158.877 326.106 158.757C325.926 158.631 325.788 158.469 325.692 158.271C325.596 158.073 325.548 157.83 325.548 157.542C325.548 157.266 325.602 157.032 325.71 156.84C325.824 156.648 325.974 156.495 326.16 156.381C326.346 156.267 326.559 156.186 326.799 156.138C327.039 156.084 327.288 156.057 327.546 156.057C327.72 156.057 327.873 156.066 328.005 156.084C328.143 156.096 328.254 156.114 328.338 156.138V156.012C328.338 155.784 328.269 155.601 328.131 155.463C327.993 155.325 327.753 155.256 327.411 155.256C327.183 155.256 326.958 155.274 326.736 155.31C326.514 155.34 326.322 155.385 326.16 155.445L325.989 154.365C326.067 154.341 326.163 154.317 326.277 154.293C326.397 154.263 326.526 154.239 326.664 154.221C326.802 154.197 326.946 154.179 327.096 154.167C327.252 154.149 327.408 154.14 327.564 154.14ZM333.691 155.454C333.571 155.424 333.43 155.394 333.268 155.364C333.106 155.328 332.932 155.31 332.746 155.31C332.662 155.31 332.56 155.319 332.44 155.337C332.326 155.349 332.239 155.364 332.179 155.382V159H330.838V154.518C331.078 154.434 331.36 154.356 331.684 154.284C332.014 154.206 332.38 154.167 332.782 154.167C332.854 154.167 332.941 154.173 333.043 154.185C333.145 154.191 333.247 154.203 333.349 154.221C333.451 154.233 333.553 154.251 333.655 154.275C333.757 154.293 333.844 154.317 333.916 154.347L333.691 155.454ZM334.59 153.087L335.931 152.871V154.266H337.542V155.382H335.931V157.047C335.931 157.329 335.979 157.554 336.075 157.722C336.177 157.89 336.378 157.974 336.678 157.974C336.822 157.974 336.969 157.962 337.119 157.938C337.275 157.908 337.416 157.869 337.542 157.821L337.731 158.865C337.569 158.931 337.389 158.988 337.191 159.036C336.993 159.084 336.75 159.108 336.462 159.108C336.096 159.108 335.793 159.06 335.553 158.964C335.313 158.862 335.121 158.724 334.977 158.55C334.833 158.37 334.731 158.154 334.671 157.902C334.617 157.65 334.59 157.371 334.59 157.065V153.087ZM342.848 152.016C343.1 152.016 343.331 152.043 343.541 152.097C343.751 152.145 343.913 152.193 344.027 152.241L343.766 153.312C343.646 153.258 343.514 153.219 343.37 153.195C343.232 153.165 343.103 153.15 342.983 153.15C342.821 153.15 342.683 153.174 342.569 153.222C342.461 153.264 342.374 153.324 342.308 153.402C342.248 153.48 342.203 153.573 342.173 153.681C342.149 153.789 342.137 153.906 342.137 154.032V154.266H343.793V155.382H342.137V159H340.796V154.014C340.796 153.402 340.967 152.916 341.309 152.556C341.657 152.196 342.17 152.016 342.848 152.016ZM348.95 156.624C348.95 156.996 348.896 157.338 348.788 157.65C348.68 157.956 348.524 158.22 348.32 158.442C348.116 158.658 347.87 158.826 347.582 158.946C347.3 159.066 346.982 159.126 346.628 159.126C346.28 159.126 345.962 159.066 345.674 158.946C345.392 158.826 345.149 158.658 344.945 158.442C344.741 158.22 344.582 157.956 344.468 157.65C344.354 157.338 344.297 156.996 344.297 156.624C344.297 156.252 344.354 155.913 344.468 155.607C344.588 155.301 344.75 155.04 344.954 154.824C345.164 154.608 345.41 154.44 345.692 154.32C345.98 154.2 346.292 154.14 346.628 154.14C346.97 154.14 347.282 154.2 347.564 154.32C347.852 154.44 348.098 154.608 348.302 154.824C348.506 155.04 348.665 155.301 348.779 155.607C348.893 155.913 348.95 156.252 348.95 156.624ZM347.582 156.624C347.582 156.21 347.498 155.886 347.33 155.652C347.168 155.412 346.934 155.292 346.628 155.292C346.322 155.292 346.085 155.412 345.917 155.652C345.749 155.886 345.665 156.21 345.665 156.624C345.665 157.038 345.749 157.368 345.917 157.614C346.085 157.854 346.322 157.974 346.628 157.974C346.934 157.974 347.168 157.854 347.33 157.614C347.498 157.368 347.582 157.038 347.582 156.624ZM352.842 155.454C352.722 155.424 352.581 155.394 352.419 155.364C352.257 155.328 352.083 155.31 351.897 155.31C351.813 155.31 351.711 155.319 351.591 155.337C351.477 155.349 351.39 155.364 351.33 155.382V159H349.989V154.518C350.229 154.434 350.511 154.356 350.835 154.284C351.165 154.206 351.531 154.167 351.933 154.167C352.005 154.167 352.092 154.173 352.194 154.185C352.296 154.191 352.398 154.203 352.5 154.221C352.602 154.233 352.704 154.251 352.806 154.275C352.908 154.293 352.995 154.317 353.067 154.347L352.842 155.454ZM356.038 159V152.763H360.214V153.942H357.442V155.247H359.908V156.426H357.442V159H356.038ZM363.793 155.454C363.673 155.424 363.532 155.394 363.37 155.364C363.208 155.328 363.034 155.31 362.848 155.31C362.764 155.31 362.662 155.319 362.542 155.337C362.428 155.349 362.341 155.364 362.281 155.382V159H360.94V154.518C361.18 154.434 361.462 154.356 361.786 154.284C362.116 154.206 362.482 154.167 362.884 154.167C362.956 154.167 363.043 154.173 363.145 154.185C363.247 154.191 363.349 154.203 363.451 154.221C363.553 154.233 363.655 154.251 363.757 154.275C363.859 154.293 363.946 154.317 364.018 154.347L363.793 155.454ZM364.424 156.669C364.424 156.249 364.487 155.883 364.613 155.571C364.745 155.253 364.916 154.989 365.126 154.779C365.336 154.569 365.576 154.41 365.846 154.302C366.122 154.194 366.404 154.14 366.692 154.14C367.364 154.14 367.895 154.347 368.285 154.761C368.675 155.169 368.87 155.772 368.87 156.57C368.87 156.648 368.867 156.735 368.861 156.831C368.855 156.921 368.849 157.002 368.843 157.074H365.801C365.831 157.35 365.96 157.569 366.188 157.731C366.416 157.893 366.722 157.974 367.106 157.974C367.352 157.974 367.592 157.953 367.826 157.911C368.066 157.863 368.261 157.806 368.411 157.74L368.591 158.829C368.519 158.865 368.423 158.901 368.303 158.937C368.183 158.973 368.048 159.003 367.898 159.027C367.754 159.057 367.598 159.081 367.43 159.099C367.262 159.117 367.094 159.126 366.926 159.126C366.5 159.126 366.128 159.063 365.81 158.937C365.498 158.811 365.237 158.64 365.027 158.424C364.823 158.202 364.67 157.941 364.568 157.641C364.472 157.341 364.424 157.017 364.424 156.669ZM367.574 156.156C367.568 156.042 367.547 155.931 367.511 155.823C367.481 155.715 367.43 155.619 367.358 155.535C367.292 155.451 367.205 155.382 367.097 155.328C366.995 155.274 366.866 155.247 366.71 155.247C366.56 155.247 366.431 155.274 366.323 155.328C366.215 155.376 366.125 155.442 366.053 155.526C365.981 155.61 365.924 155.709 365.882 155.823C365.846 155.931 365.819 156.042 365.801 156.156H367.574ZM369.68 156.669C369.68 156.249 369.743 155.883 369.869 155.571C370.001 155.253 370.172 154.989 370.382 154.779C370.592 154.569 370.832 154.41 371.102 154.302C371.378 154.194 371.66 154.14 371.948 154.14C372.62 154.14 373.151 154.347 373.541 154.761C373.931 155.169 374.126 155.772 374.126 156.57C374.126 156.648 374.123 156.735 374.117 156.831C374.111 156.921 374.105 157.002 374.099 157.074H371.057C371.087 157.35 371.216 157.569 371.444 157.731C371.672 157.893 371.978 157.974 372.362 157.974C372.608 157.974 372.848 157.953 373.082 157.911C373.322 157.863 373.517 157.806 373.667 157.74L373.847 158.829C373.775 158.865 373.679 158.901 373.559 158.937C373.439 158.973 373.304 159.003 373.154 159.027C373.01 159.057 372.854 159.081 372.686 159.099C372.518 159.117 372.35 159.126 372.182 159.126C371.756 159.126 371.384 159.063 371.066 158.937C370.754 158.811 370.493 158.64 370.283 158.424C370.079 158.202 369.926 157.941 369.824 157.641C369.728 157.341 369.68 157.017 369.68 156.669ZM372.83 156.156C372.824 156.042 372.803 155.931 372.767 155.823C372.737 155.715 372.686 155.619 372.614 155.535C372.548 155.451 372.461 155.382 372.353 155.328C372.251 155.274 372.122 155.247 371.966 155.247C371.816 155.247 371.687 155.274 371.579 155.328C371.471 155.376 371.381 155.442 371.309 155.526C371.237 155.61 371.18 155.709 371.138 155.823C371.102 155.931 371.075 156.042 371.057 156.156H372.83Z" fill="#FF505C"/>
</g>
<g clip-path="url(#clip1_4_79)">
<rect x="394.079" y="143.5" width="77.4207" height="26.4759" rx="13.2379" stroke="white"/>
<path d="M414.08 158.794V160H409.913V153.763H411.317V158.794H414.08ZM414.669 157.669C414.669 157.249 414.732 156.883 414.858 156.571C414.99 156.253 415.161 155.989 415.371 155.779C415.581 155.569 415.821 155.41 416.091 155.302C416.367 155.194 416.649 155.14 416.937 155.14C417.609 155.14 418.14 155.347 418.53 155.761C418.92 156.169 419.115 156.772 419.115 157.57C419.115 157.648 419.112 157.735 419.106 157.831C419.1 157.921 419.094 158.002 419.088 158.074H416.046C416.076 158.35 416.205 158.569 416.433 158.731C416.661 158.893 416.967 158.974 417.351 158.974C417.597 158.974 417.837 158.953 418.071 158.911C418.311 158.863 418.506 158.806 418.656 158.74L418.836 159.829C418.764 159.865 418.668 159.901 418.548 159.937C418.428 159.973 418.293 160.003 418.143 160.027C417.999 160.057 417.843 160.081 417.675 160.099C417.507 160.117 417.339 160.126 417.171 160.126C416.745 160.126 416.373 160.063 416.055 159.937C415.743 159.811 415.482 159.64 415.272 159.424C415.068 159.202 414.915 158.941 414.813 158.641C414.717 158.341 414.669 158.017 414.669 157.669ZM417.819 157.156C417.813 157.042 417.792 156.931 417.756 156.823C417.726 156.715 417.675 156.619 417.603 156.535C417.537 156.451 417.45 156.382 417.342 156.328C417.24 156.274 417.111 156.247 416.955 156.247C416.805 156.247 416.676 156.274 416.568 156.328C416.46 156.376 416.37 156.442 416.298 156.526C416.226 156.61 416.169 156.709 416.127 156.823C416.091 156.931 416.064 157.042 416.046 157.156H417.819ZM421.959 159.064C422.091 159.064 422.217 159.061 422.337 159.055C422.457 159.049 422.553 159.04 422.625 159.028V158.011C422.571 157.999 422.49 157.987 422.382 157.975C422.274 157.963 422.175 157.957 422.085 157.957C421.959 157.957 421.839 157.966 421.725 157.984C421.617 157.996 421.521 158.023 421.437 158.065C421.353 158.107 421.287 158.164 421.239 158.236C421.191 158.308 421.167 158.398 421.167 158.506C421.167 158.716 421.236 158.863 421.374 158.947C421.518 159.025 421.713 159.064 421.959 159.064ZM421.851 155.14C422.247 155.14 422.577 155.185 422.841 155.275C423.105 155.365 423.315 155.494 423.471 155.662C423.633 155.83 423.747 156.034 423.813 156.274C423.879 156.514 423.912 156.781 423.912 157.075V159.865C423.72 159.907 423.453 159.955 423.111 160.009C422.769 160.069 422.355 160.099 421.869 160.099C421.563 160.099 421.284 160.072 421.032 160.018C420.786 159.964 420.573 159.877 420.393 159.757C420.213 159.631 420.075 159.469 419.979 159.271C419.883 159.073 419.835 158.83 419.835 158.542C419.835 158.266 419.889 158.032 419.997 157.84C420.111 157.648 420.261 157.495 420.447 157.381C420.633 157.267 420.846 157.186 421.086 157.138C421.326 157.084 421.575 157.057 421.833 157.057C422.007 157.057 422.16 157.066 422.292 157.084C422.43 157.096 422.541 157.114 422.625 157.138V157.012C422.625 156.784 422.556 156.601 422.418 156.463C422.28 156.325 422.04 156.256 421.698 156.256C421.47 156.256 421.245 156.274 421.023 156.31C420.801 156.34 420.609 156.385 420.447 156.445L420.276 155.365C420.354 155.341 420.45 155.317 420.564 155.293C420.684 155.263 420.813 155.239 420.951 155.221C421.089 155.197 421.233 155.179 421.383 155.167C421.539 155.149 421.695 155.14 421.851 155.14ZM427.978 156.454C427.858 156.424 427.717 156.394 427.555 156.364C427.393 156.328 427.219 156.31 427.033 156.31C426.949 156.31 426.847 156.319 426.727 156.337C426.613 156.349 426.526 156.364 426.466 156.382V160H425.125V155.518C425.365 155.434 425.647 155.356 425.971 155.284C426.301 155.206 426.667 155.167 427.069 155.167C427.141 155.167 427.228 155.173 427.33 155.185C427.432 155.191 427.534 155.203 427.636 155.221C427.738 155.233 427.84 155.251 427.942 155.275C428.044 155.293 428.131 155.317 428.203 155.347L427.978 156.454ZM428.921 155.428C429.149 155.362 429.443 155.302 429.803 155.248C430.163 155.188 430.541 155.158 430.937 155.158C431.339 155.158 431.672 155.212 431.936 155.32C432.206 155.422 432.419 155.569 432.575 155.761C432.731 155.953 432.842 156.181 432.908 156.445C432.974 156.709 433.007 157.003 433.007 157.327V160H431.666V157.489C431.666 157.057 431.609 156.751 431.495 156.571C431.381 156.391 431.168 156.301 430.856 156.301C430.76 156.301 430.658 156.307 430.55 156.319C430.442 156.325 430.346 156.334 430.262 156.346V160H428.921V155.428ZM438.129 153.763C438.237 153.961 438.36 154.207 438.498 154.501C438.642 154.789 438.789 155.104 438.939 155.446C439.095 155.782 439.248 156.127 439.398 156.481C439.548 156.835 439.689 157.168 439.821 157.48C439.953 157.168 440.094 156.835 440.244 156.481C440.394 156.127 440.544 155.782 440.694 155.446C440.85 155.104 440.997 154.789 441.135 154.501C441.279 154.207 441.405 153.961 441.513 153.763H442.791C442.851 154.177 442.905 154.642 442.953 155.158C443.007 155.668 443.052 156.202 443.088 156.76C443.13 157.312 443.166 157.867 443.196 158.425C443.232 158.983 443.262 159.508 443.286 160H441.918C441.9 159.394 441.876 158.734 441.846 158.02C441.816 157.306 441.771 156.586 441.711 155.86C441.603 156.112 441.483 156.391 441.351 156.697C441.219 157.003 441.087 157.309 440.955 157.615C440.829 157.921 440.706 158.215 440.586 158.497C440.466 158.773 440.364 159.01 440.28 159.208H439.299C439.215 159.01 439.113 158.773 438.993 158.497C438.873 158.215 438.747 157.921 438.615 157.615C438.489 157.309 438.36 157.003 438.228 156.697C438.096 156.391 437.976 156.112 437.868 155.86C437.808 156.586 437.763 157.306 437.733 158.02C437.703 158.734 437.679 159.394 437.661 160H436.293C436.317 159.508 436.344 158.983 436.374 158.425C436.41 157.867 436.446 157.312 436.482 156.76C436.524 156.202 436.569 155.668 436.617 155.158C436.671 154.642 436.728 154.177 436.788 153.763H438.129ZM448.888 157.624C448.888 157.996 448.834 158.338 448.726 158.65C448.618 158.956 448.462 159.22 448.258 159.442C448.054 159.658 447.808 159.826 447.52 159.946C447.238 160.066 446.92 160.126 446.566 160.126C446.218 160.126 445.9 160.066 445.612 159.946C445.33 159.826 445.087 159.658 444.883 159.442C444.679 159.22 444.52 158.956 444.406 158.65C444.292 158.338 444.235 157.996 444.235 157.624C444.235 157.252 444.292 156.913 444.406 156.607C444.526 156.301 444.688 156.04 444.892 155.824C445.102 155.608 445.348 155.44 445.63 155.32C445.918 155.2 446.23 155.14 446.566 155.14C446.908 155.14 447.22 155.2 447.502 155.32C447.79 155.44 448.036 155.608 448.24 155.824C448.444 156.04 448.603 156.301 448.717 156.607C448.831 156.913 448.888 157.252 448.888 157.624ZM447.52 157.624C447.52 157.21 447.436 156.886 447.268 156.652C447.106 156.412 446.872 156.292 446.566 156.292C446.26 156.292 446.023 156.412 445.855 156.652C445.687 156.886 445.603 157.21 445.603 157.624C445.603 158.038 445.687 158.368 445.855 158.614C446.023 158.854 446.26 158.974 446.566 158.974C446.872 158.974 447.106 158.854 447.268 158.614C447.436 158.368 447.52 158.038 447.52 157.624ZM452.78 156.454C452.66 156.424 452.519 156.394 452.357 156.364C452.195 156.328 452.021 156.31 451.835 156.31C451.751 156.31 451.649 156.319 451.529 156.337C451.415 156.349 451.328 156.364 451.268 156.382V160H449.927V155.518C450.167 155.434 450.449 155.356 450.773 155.284C451.103 155.206 451.469 155.167 451.871 155.167C451.943 155.167 452.03 155.173 452.132 155.185C452.234 155.191 452.336 155.203 452.438 155.221C452.54 155.233 452.642 155.251 452.744 155.275C452.846 155.293 452.933 155.317 453.005 155.347L452.78 156.454ZM453.411 157.669C453.411 157.249 453.474 156.883 453.6 156.571C453.732 156.253 453.903 155.989 454.113 155.779C454.323 155.569 454.563 155.41 454.833 155.302C455.109 155.194 455.391 155.14 455.679 155.14C456.351 155.14 456.882 155.347 457.272 155.761C457.662 156.169 457.857 156.772 457.857 157.57C457.857 157.648 457.854 157.735 457.848 157.831C457.842 157.921 457.836 158.002 457.83 158.074H454.788C454.818 158.35 454.947 158.569 455.175 158.731C455.403 158.893 455.709 158.974 456.093 158.974C456.339 158.974 456.579 158.953 456.813 158.911C457.053 158.863 457.248 158.806 457.398 158.74L457.578 159.829C457.506 159.865 457.41 159.901 457.29 159.937C457.17 159.973 457.035 160.003 456.885 160.027C456.741 160.057 456.585 160.081 456.417 160.099C456.249 160.117 456.081 160.126 455.913 160.126C455.487 160.126 455.115 160.063 454.797 159.937C454.485 159.811 454.224 159.64 454.014 159.424C453.81 159.202 453.657 158.941 453.555 158.641C453.459 158.341 453.411 158.017 453.411 157.669ZM456.561 157.156C456.555 157.042 456.534 156.931 456.498 156.823C456.468 156.715 456.417 156.619 456.345 156.535C456.279 156.451 456.192 156.382 456.084 156.328C455.982 156.274 455.853 156.247 455.697 156.247C455.547 156.247 455.418 156.274 455.31 156.328C455.202 156.376 455.112 156.442 455.04 156.526C454.968 156.61 454.911 156.709 454.869 156.823C454.833 156.931 454.806 157.042 454.788 157.156H456.561Z" fill="white"/>
</g>
<path d="M323.387 254.476C323.475 254.484 323.575 254.492 323.687 254.5C323.807 254.5 323.947 254.5 324.107 254.5C325.043 254.5 325.735 254.264 326.183 253.792C326.639 253.32 326.867 252.668 326.867 251.836C326.867 250.964 326.651 250.304 326.219 249.856C325.787 249.408 325.103 249.184 324.167 249.184C324.039 249.184 323.907 249.188 323.771 249.196C323.635 249.196 323.507 249.204 323.387 249.22V254.476ZM328.799 251.836C328.799 252.556 328.687 253.184 328.463 253.72C328.239 254.256 327.919 254.7 327.503 255.052C327.095 255.404 326.595 255.668 326.003 255.844C325.411 256.02 324.747 256.108 324.011 256.108C323.675 256.108 323.283 256.092 322.835 256.06C322.387 256.036 321.947 255.98 321.515 255.892V247.792C321.947 247.712 322.395 247.66 322.859 247.636C323.331 247.604 323.735 247.588 324.071 247.588C324.783 247.588 325.427 247.668 326.003 247.828C326.587 247.988 327.087 248.24 327.503 248.584C327.919 248.928 328.239 249.368 328.463 249.904C328.687 250.44 328.799 251.084 328.799 251.836ZM329.942 252.892C329.942 252.332 330.026 251.844 330.194 251.428C330.37 251.004 330.598 250.652 330.878 250.372C331.158 250.092 331.478 249.88 331.838 249.736C332.206 249.592 332.582 249.52 332.966 249.52C333.862 249.52 334.57 249.796 335.09 250.348C335.61 250.892 335.87 251.696 335.87 252.76C335.87 252.864 335.866 252.98 335.858 253.108C335.85 253.228 335.842 253.336 335.834 253.432H331.778C331.818 253.8 331.99 254.092 332.294 254.308C332.598 254.524 333.006 254.632 333.518 254.632C333.846 254.632 334.166 254.604 334.478 254.548C334.798 254.484 335.058 254.408 335.258 254.32L335.498 255.772C335.402 255.82 335.274 255.868 335.114 255.916C334.954 255.964 334.774 256.004 334.574 256.036C334.382 256.076 334.174 256.108 333.95 256.132C333.726 256.156 333.502 256.168 333.278 256.168C332.71 256.168 332.214 256.084 331.79 255.916C331.374 255.748 331.026 255.52 330.746 255.232C330.474 254.936 330.27 254.588 330.134 254.188C330.006 253.788 329.942 253.356 329.942 252.892ZM334.142 252.208C334.134 252.056 334.106 251.908 334.058 251.764C334.018 251.62 333.95 251.492 333.854 251.38C333.766 251.268 333.65 251.176 333.506 251.104C333.37 251.032 333.198 250.996 332.99 250.996C332.79 250.996 332.618 251.032 332.474 251.104C332.33 251.168 332.21 251.256 332.114 251.368C332.018 251.48 331.942 251.612 331.886 251.764C331.838 251.908 331.802 252.056 331.778 252.208H334.142ZM339.062 254.716C339.39 254.716 339.622 254.684 339.758 254.62C339.894 254.556 339.962 254.432 339.962 254.248C339.962 254.104 339.874 253.98 339.698 253.876C339.522 253.764 339.254 253.64 338.894 253.504C338.614 253.4 338.358 253.292 338.126 253.18C337.902 253.068 337.71 252.936 337.55 252.784C337.39 252.624 337.266 252.436 337.178 252.22C337.09 252.004 337.046 251.744 337.046 251.44C337.046 250.848 337.266 250.38 337.706 250.036C338.146 249.692 338.75 249.52 339.518 249.52C339.902 249.52 340.27 249.556 340.622 249.628C340.974 249.692 341.254 249.764 341.462 249.844L341.15 251.236C340.942 251.164 340.714 251.1 340.466 251.044C340.226 250.988 339.954 250.96 339.65 250.96C339.09 250.96 338.81 251.116 338.81 251.428C338.81 251.5 338.822 251.564 338.846 251.62C338.87 251.676 338.918 251.732 338.99 251.788C339.062 251.836 339.158 251.892 339.278 251.956C339.406 252.012 339.566 252.076 339.758 252.148C340.15 252.292 340.474 252.436 340.73 252.58C340.986 252.716 341.186 252.868 341.33 253.036C341.482 253.196 341.586 253.376 341.642 253.576C341.706 253.776 341.738 254.008 341.738 254.272C341.738 254.896 341.502 255.368 341.03 255.688C340.566 256.008 339.906 256.168 339.05 256.168C338.49 256.168 338.022 256.12 337.646 256.024C337.278 255.928 337.022 255.848 336.878 255.784L337.178 254.332C337.482 254.452 337.794 254.548 338.114 254.62C338.434 254.684 338.75 254.716 339.062 254.716ZM344.862 256H343.074V249.688H344.862V256ZM345.03 247.864C345.03 248.192 344.922 248.452 344.706 248.644C344.498 248.828 344.25 248.92 343.962 248.92C343.674 248.92 343.422 248.828 343.206 248.644C342.998 248.452 342.894 248.192 342.894 247.864C342.894 247.536 342.998 247.28 343.206 247.096C343.422 246.904 343.674 246.808 343.962 246.808C344.25 246.808 344.498 246.904 344.706 247.096C344.922 247.28 345.03 247.536 345.03 247.864ZM348.067 252.64C348.067 253.64 348.471 254.14 349.279 254.14C349.463 254.14 349.635 254.116 349.795 254.068C349.955 254.02 350.091 253.964 350.203 253.9V251.044C350.115 251.028 350.011 251.016 349.891 251.008C349.771 250.992 349.631 250.984 349.471 250.984C348.999 250.984 348.647 251.14 348.415 251.452C348.183 251.764 348.067 252.16 348.067 252.64ZM351.991 255.208C351.991 256.24 351.727 257.004 351.199 257.5C350.679 258.004 349.871 258.256 348.775 258.256C348.391 258.256 348.007 258.22 347.623 258.148C347.239 258.084 346.883 257.996 346.555 257.884L346.867 256.384C347.147 256.496 347.439 256.584 347.743 256.648C348.055 256.712 348.407 256.744 348.799 256.744C349.311 256.744 349.671 256.632 349.879 256.408C350.095 256.184 350.203 255.896 350.203 255.544V255.316C350.011 255.404 349.811 255.472 349.603 255.52C349.403 255.56 349.183 255.58 348.943 255.58C348.071 255.58 347.403 255.324 346.939 254.812C346.475 254.292 346.243 253.568 346.243 252.64C346.243 252.176 346.315 251.756 346.459 251.38C346.603 250.996 346.811 250.668 347.083 250.396C347.363 250.124 347.703 249.916 348.103 249.772C348.503 249.62 348.955 249.544 349.459 249.544C349.675 249.544 349.895 249.556 350.119 249.58C350.351 249.596 350.579 249.62 350.803 249.652C351.027 249.684 351.239 249.724 351.439 249.772C351.647 249.812 351.831 249.856 351.991 249.904V255.208ZM353.668 249.904C353.972 249.816 354.364 249.736 354.844 249.664C355.324 249.584 355.828 249.544 356.356 249.544C356.892 249.544 357.336 249.616 357.688 249.76C358.048 249.896 358.332 250.092 358.54 250.348C358.748 250.604 358.896 250.908 358.984 251.26C359.072 251.612 359.116 252.004 359.116 252.436V256H357.328V252.652C357.328 252.076 357.252 251.668 357.1 251.428C356.948 251.188 356.664 251.068 356.248 251.068C356.12 251.068 355.984 251.076 355.84 251.092C355.696 251.1 355.568 251.112 355.456 251.128V256H353.668V249.904ZM360.435 252.892C360.435 252.332 360.519 251.844 360.687 251.428C360.863 251.004 361.091 250.652 361.371 250.372C361.651 250.092 361.971 249.88 362.331 249.736C362.699 249.592 363.075 249.52 363.459 249.52C364.355 249.52 365.063 249.796 365.583 250.348C366.103 250.892 366.363 251.696 366.363 252.76C366.363 252.864 366.359 252.98 366.351 253.108C366.343 253.228 366.335 253.336 366.327 253.432H362.271C362.311 253.8 362.483 254.092 362.787 254.308C363.091 254.524 363.499 254.632 364.011 254.632C364.339 254.632 364.659 254.604 364.971 254.548C365.291 254.484 365.551 254.408 365.751 254.32L365.991 255.772C365.895 255.82 365.767 255.868 365.607 255.916C365.447 255.964 365.267 256.004 365.067 256.036C364.875 256.076 364.667 256.108 364.443 256.132C364.219 256.156 363.995 256.168 363.771 256.168C363.203 256.168 362.707 256.084 362.283 255.916C361.867 255.748 361.519 255.52 361.239 255.232C360.967 254.936 360.763 254.588 360.627 254.188C360.499 253.788 360.435 253.356 360.435 252.892ZM364.635 252.208C364.627 252.056 364.599 251.908 364.551 251.764C364.511 251.62 364.443 251.492 364.347 251.38C364.259 251.268 364.143 251.176 363.999 251.104C363.863 251.032 363.691 250.996 363.483 250.996C363.283 250.996 363.111 251.032 362.967 251.104C362.823 251.168 362.703 251.256 362.607 251.368C362.511 251.48 362.435 251.612 362.379 251.764C362.331 251.908 362.295 252.056 362.271 252.208H364.635ZM369.266 252.796C369.266 253.348 369.39 253.792 369.638 254.128C369.886 254.464 370.254 254.632 370.742 254.632C370.902 254.632 371.05 254.628 371.186 254.62C371.322 254.604 371.434 254.588 371.522 254.572V251.32C371.41 251.248 371.262 251.188 371.078 251.14C370.902 251.092 370.722 251.068 370.538 251.068C369.69 251.068 369.266 251.644 369.266 252.796ZM373.31 255.796C373.15 255.844 372.966 255.892 372.758 255.94C372.55 255.98 372.33 256.016 372.098 256.048C371.874 256.08 371.642 256.104 371.402 256.12C371.17 256.144 370.946 256.156 370.73 256.156C370.21 256.156 369.746 256.08 369.338 255.928C368.93 255.776 368.586 255.56 368.306 255.28C368.026 254.992 367.81 254.648 367.658 254.248C367.514 253.84 367.442 253.384 367.442 252.88C367.442 252.368 367.506 251.908 367.634 251.5C367.762 251.084 367.946 250.732 368.186 250.444C368.426 250.156 368.718 249.936 369.062 249.784C369.414 249.632 369.814 249.556 370.262 249.556C370.51 249.556 370.73 249.58 370.922 249.628C371.122 249.676 371.322 249.744 371.522 249.832V246.976L373.31 246.688V255.796ZM380.603 246.688C380.939 246.688 381.247 246.724 381.527 246.796C381.807 246.86 382.023 246.924 382.175 246.988L381.827 248.416C381.667 248.344 381.491 248.292 381.299 248.26C381.115 248.22 380.943 248.2 380.783 248.2C380.567 248.2 380.383 248.232 380.231 248.296C380.087 248.352 379.971 248.432 379.883 248.536C379.803 248.64 379.743 248.764 379.703 248.908C379.671 249.052 379.655 249.208 379.655 249.376V249.688H381.863V251.176H379.655V256H377.867V249.352C377.867 248.536 378.095 247.888 378.551 247.408C379.015 246.928 379.699 246.688 380.603 246.688ZM388.74 252.832C388.74 253.328 388.668 253.784 388.524 254.2C388.38 254.608 388.172 254.96 387.9 255.256C387.628 255.544 387.3 255.768 386.916 255.928C386.54 256.088 386.116 256.168 385.644 256.168C385.18 256.168 384.756 256.088 384.372 255.928C383.996 255.768 383.672 255.544 383.4 255.256C383.128 254.96 382.916 254.608 382.764 254.2C382.612 253.784 382.536 253.328 382.536 252.832C382.536 252.336 382.612 251.884 382.764 251.476C382.924 251.068 383.14 250.72 383.412 250.432C383.692 250.144 384.02 249.92 384.396 249.76C384.78 249.6 385.196 249.52 385.644 249.52C386.1 249.52 386.516 249.6 386.892 249.76C387.276 249.92 387.604 250.144 387.876 250.432C388.148 250.72 388.36 251.068 388.512 251.476C388.664 251.884 388.74 252.336 388.74 252.832ZM386.916 252.832C386.916 252.28 386.804 251.848 386.58 251.536C386.364 251.216 386.052 251.056 385.644 251.056C385.236 251.056 384.92 251.216 384.696 251.536C384.472 251.848 384.36 252.28 384.36 252.832C384.36 253.384 384.472 253.824 384.696 254.152C384.92 254.472 385.236 254.632 385.644 254.632C386.052 254.632 386.364 254.472 386.58 254.152C386.804 253.824 386.916 253.384 386.916 252.832ZM393.929 251.272C393.769 251.232 393.581 251.192 393.365 251.152C393.149 251.104 392.917 251.08 392.669 251.08C392.557 251.08 392.421 251.092 392.261 251.116C392.109 251.132 391.993 251.152 391.913 251.176V256H390.125V250.024C390.445 249.912 390.821 249.808 391.253 249.712C391.693 249.608 392.181 249.556 392.717 249.556C392.813 249.556 392.929 249.564 393.065 249.58C393.201 249.588 393.337 249.604 393.473 249.628C393.609 249.644 393.745 249.668 393.881 249.7C394.017 249.724 394.133 249.756 394.229 249.796L393.929 251.272ZM398.01 248.116L399.798 247.828V249.688H401.946V251.176H399.798V253.396C399.798 253.772 399.862 254.072 399.99 254.296C400.126 254.52 400.394 254.632 400.794 254.632C400.986 254.632 401.182 254.616 401.382 254.584C401.59 254.544 401.778 254.492 401.946 254.428L402.198 255.82C401.982 255.908 401.742 255.984 401.478 256.048C401.214 256.112 400.89 256.144 400.506 256.144C400.018 256.144 399.614 256.08 399.294 255.952C398.974 255.816 398.718 255.632 398.526 255.4C398.334 255.16 398.198 254.872 398.118 254.536C398.046 254.2 398.01 253.828 398.01 253.42V248.116ZM403.403 256V246.976L405.191 246.688V249.712C405.311 249.672 405.463 249.636 405.646 249.604C405.839 249.564 406.023 249.544 406.199 249.544C406.711 249.544 407.135 249.616 407.471 249.76C407.815 249.896 408.087 250.092 408.287 250.348C408.495 250.604 408.639 250.908 408.719 251.26C408.807 251.612 408.851 252.004 408.851 252.436V256H407.063V252.652C407.063 252.076 406.987 251.668 406.835 251.428C406.691 251.188 406.419 251.068 406.019 251.068C405.859 251.068 405.707 251.084 405.562 251.116C405.427 251.14 405.303 251.168 405.191 251.2V256H403.403ZM410.169 252.892C410.169 252.332 410.253 251.844 410.421 251.428C410.597 251.004 410.825 250.652 411.105 250.372C411.385 250.092 411.705 249.88 412.065 249.736C412.433 249.592 412.809 249.52 413.193 249.52C414.089 249.52 414.797 249.796 415.317 250.348C415.837 250.892 416.097 251.696 416.097 252.76C416.097 252.864 416.093 252.98 416.085 253.108C416.077 253.228 416.069 253.336 416.061 253.432H412.005C412.045 253.8 412.217 254.092 412.521 254.308C412.825 254.524 413.233 254.632 413.745 254.632C414.073 254.632 414.393 254.604 414.705 254.548C415.025 254.484 415.285 254.408 415.485 254.32L415.725 255.772C415.629 255.82 415.501 255.868 415.341 255.916C415.181 255.964 415.001 256.004 414.801 256.036C414.609 256.076 414.401 256.108 414.177 256.132C413.953 256.156 413.729 256.168 413.505 256.168C412.937 256.168 412.441 256.084 412.017 255.916C411.601 255.748 411.253 255.52 410.973 255.232C410.701 254.936 410.497 254.588 410.361 254.188C410.233 253.788 410.169 253.356 410.169 252.892ZM414.369 252.208C414.361 252.056 414.333 251.908 414.285 251.764C414.245 251.62 414.177 251.492 414.081 251.38C413.993 251.268 413.877 251.176 413.733 251.104C413.597 251.032 413.425 250.996 413.217 250.996C413.017 250.996 412.845 251.032 412.701 251.104C412.557 251.168 412.437 251.256 412.341 251.368C412.245 251.48 412.169 251.612 412.113 251.764C412.065 251.908 412.029 252.056 412.005 252.208H414.369ZM423.096 246.688C423.432 246.688 423.74 246.724 424.02 246.796C424.3 246.86 424.516 246.924 424.668 246.988L424.32 248.416C424.16 248.344 423.984 248.292 423.792 248.26C423.608 248.22 423.436 248.2 423.276 248.2C423.06 248.2 422.876 248.232 422.724 248.296C422.58 248.352 422.464 248.432 422.376 248.536C422.296 248.64 422.236 248.764 422.196 248.908C422.164 249.052 422.148 249.208 422.148 249.376V249.688H424.356V251.176H422.148V256H420.36V249.352C420.36 248.536 420.588 247.888 421.044 247.408C421.508 246.928 422.192 246.688 423.096 246.688ZM430.81 255.784C430.506 255.872 430.114 255.952 429.634 256.024C429.154 256.104 428.65 256.144 428.122 256.144C427.586 256.144 427.138 256.072 426.778 255.928C426.426 255.784 426.146 255.584 425.938 255.328C425.73 255.064 425.582 254.752 425.494 254.392C425.406 254.032 425.362 253.636 425.362 253.204V249.688H427.15V252.988C427.15 253.564 427.226 253.98 427.378 254.236C427.53 254.492 427.814 254.62 428.23 254.62C428.358 254.62 428.494 254.616 428.638 254.608C428.782 254.592 428.91 254.576 429.022 254.56V249.688H430.81V255.784ZM432.428 248.116L434.216 247.828V249.688H436.364V251.176H434.216V253.396C434.216 253.772 434.28 254.072 434.408 254.296C434.544 254.52 434.812 254.632 435.212 254.632C435.404 254.632 435.6 254.616 435.8 254.584C436.008 254.544 436.196 254.492 436.364 254.428L436.616 255.82C436.4 255.908 436.16 255.984 435.896 256.048C435.632 256.112 435.308 256.144 434.924 256.144C434.436 256.144 434.032 256.08 433.712 255.952C433.392 255.816 433.136 255.632 432.944 255.4C432.752 255.16 432.616 254.872 432.536 254.536C432.464 254.2 432.428 253.828 432.428 253.42V248.116ZM443.208 255.784C442.904 255.872 442.512 255.952 442.032 256.024C441.552 256.104 441.048 256.144 440.52 256.144C439.984 256.144 439.536 256.072 439.176 255.928C438.824 255.784 438.544 255.584 438.336 255.328C438.128 255.064 437.98 254.752 437.892 254.392C437.804 254.032 437.76 253.636 437.76 253.204V249.688H439.548V252.988C439.548 253.564 439.624 253.98 439.776 254.236C439.928 254.492 440.212 254.62 440.628 254.62C440.756 254.62 440.892 254.616 441.036 254.608C441.18 254.592 441.308 254.576 441.42 254.56V249.688H443.208V255.784ZM448.691 251.272C448.531 251.232 448.343 251.192 448.127 251.152C447.911 251.104 447.679 251.08 447.431 251.08C447.319 251.08 447.183 251.092 447.023 251.116C446.871 251.132 446.755 251.152 446.675 251.176V256H444.887V250.024C445.207 249.912 445.583 249.808 446.015 249.712C446.455 249.608 446.943 249.556 447.479 249.556C447.575 249.556 447.691 249.564 447.827 249.58C447.963 249.588 448.099 249.604 448.235 249.628C448.371 249.644 448.507 249.668 448.643 249.7C448.779 249.724 448.895 249.756 448.991 249.796L448.691 251.272ZM449.532 252.892C449.532 252.332 449.616 251.844 449.784 251.428C449.96 251.004 450.188 250.652 450.468 250.372C450.748 250.092 451.068 249.88 451.428 249.736C451.796 249.592 452.172 249.52 452.556 249.52C453.452 249.52 454.16 249.796 454.68 250.348C455.2 250.892 455.46 251.696 455.46 252.76C455.46 252.864 455.456 252.98 455.448 253.108C455.44 253.228 455.432 253.336 455.424 253.432H451.368C451.408 253.8 451.58 254.092 451.884 254.308C452.188 254.524 452.596 254.632 453.108 254.632C453.436 254.632 453.756 254.604 454.068 254.548C454.388 254.484 454.648 254.408 454.848 254.32L455.088 255.772C454.992 255.82 454.864 255.868 454.704 255.916C454.544 255.964 454.364 256.004 454.164 256.036C453.972 256.076 453.764 256.108 453.54 256.132C453.316 256.156 453.092 256.168 452.868 256.168C452.3 256.168 451.804 256.084 451.38 255.916C450.964 255.748 450.616 255.52 450.336 255.232C450.064 254.936 449.86 254.588 449.724 254.188C449.596 253.788 449.532 253.356 449.532 252.892ZM453.732 252.208C453.724 252.056 453.696 251.908 453.648 251.764C453.608 251.62 453.54 251.492 453.444 251.38C453.356 251.268 453.24 251.176 453.096 251.104C452.96 251.032 452.788 250.996 452.58 250.996C452.38 250.996 452.208 251.032 452.064 251.104C451.92 251.168 451.8 251.256 451.704 251.368C451.608 251.48 451.532 251.612 451.476 251.764C451.428 251.908 451.392 252.056 451.368 252.208H453.732Z" fill="black"/>
<defs>
<filter id="filter0_d_4_79" x="0" y="0" width="779" height="467" filterUnits="userSpaceOnUse" color-interpolation-filters="sRGB">
<feFlood flood-opacity="0" result="BackgroundImageFix"/>
<feColorMatrix in="SourceAlpha" type="matrix" values="0 0 0 0 0 0 0 0 0 0 0 0 0 0 0 0 0 0 127 0" result="hardAlpha"/>
<feOffset dy="20"/>
<feGaussianBlur stdDeviation="20"/>
<feColorMatrix type="matrix" values="0 0 0 0 0.421822 0 0 0 0 0.554338 0 0 0 0 0.89371 0 0 0 0.243444 0"/>
<feBlend mode="normal" in2="BackgroundImageFix" result="effect1_dropShadow_4_79"/>
<feBlend mode="normal" in="SourceGraphic" in2="effect1_dropShadow_4_79" result="shape"/>
</filter>
<linearGradient id="paint0_linear_4_79" x1="-118" y1="123.5" x2="-5.78664" y2="441.96" gradientUnits="userSpaceOnUse">
<stop stop-color="#FF8F71"/>
<stop offset="1" stop-color="#FF3E55"/>
</linearGradient>
<clipPath id="clip0_4_79">
<rect width="78.4207" height="27.4759" fill="white" transform="translate(306 143)"/>
</clipPath>
<clipPath id="clip1_4_79">
<rect width="78.4207" height="27.4759" fill="white" transform="translate(393.579 143)"/>
</clipPath>
</defs>
</svg>
