<svg width="779" height="467" viewBox="0 0 779 467" fill="none" xmlns="http://www.w3.org/2000/svg">
<g filter="url(#filter0_d_1_35)">
<rect x="122" y="20" width="538" height="368" rx="12" fill="#535353"/>
<rect x="125" y="23" width="532" height="362" rx="10" fill="#1D1D25"/>
<path d="M40 387C40 385.343 41.3431 384 43 384H735.899C737.556 384 738.899 385.343 738.899 387V401.105H40V387Z" fill="#52526F"/>
<mask id="mask0_1_35" style="mask-type:alpha" maskUnits="userSpaceOnUse" x="40" y="384" width="699" height="18">
<path d="M40 387C40 385.343 41.3431 384 43 384H735.899C737.556 384 738.899 385.343 738.899 387V401.105H40V387Z" fill="white"/>
</mask>
<g mask="url(#mask0_1_35)">
<rect x="332.371" y="342.092" width="114.156" height="52.1711" rx="10" fill="#2F2F47"/>
</g>
<path d="M40 401H739V401C739 404.314 736.314 407 733 407H46C42.6863 407 40 404.314 40 401V401Z" fill="#393A56"/>
</g>
<rect x="136" y="34" width="508" height="333" rx="10" fill="white"/>
<path d="M136 44C136 38.4772 140.477 34 146 34H634C639.523 34 644 38.4772 644 44V190.951C644 196.133 640.042 200.456 634.88 200.912L146.88 244.038C141.033 244.555 136 239.948 136 234.077V44Z" fill="#55C57A"/>
<line x1="155.701" y1="50.733" x2="163.701" y2="71.733" stroke="white" stroke-width="1.5"/>
<line x1="155.542" y1="50.4816" x2="176.279" y2="72.1608" stroke="white" stroke-width="1.5"/>
<line x1="163.939" y1="72.2892" x2="176.439" y2="50.6385" stroke="white" stroke-width="1.5"/>
<line x1="176.65" y1="50.625" x2="189.15" y2="72.2756" stroke="white" stroke-width="1.5"/>
<line x1="196.701" y1="51.267" x2="188.701" y2="72.267" stroke="white" stroke-width="1.5"/>
<line x1="196.744" y1="51.5303" x2="175.53" y2="72.7435" stroke="white" stroke-width="1.5"/>
<path d="M327.18 97.384C327.18 98.672 326.972 99.856 326.556 100.936C326.148 102.008 325.568 102.936 324.816 103.72C324.064 104.496 323.164 105.1 322.116 105.532C321.068 105.964 319.904 106.18 318.624 106.18C317.352 106.18 316.188 105.964 315.132 105.532C314.084 105.1 313.184 104.496 312.432 103.72C311.688 102.936 311.108 102.008 310.692 100.936C310.276 99.856 310.068 98.672 310.068 97.384C310.068 96.104 310.276 94.924 310.692 93.844C311.108 92.764 311.688 91.836 312.432 91.06C313.184 90.276 314.084 89.668 315.132 89.236C316.188 88.796 317.352 88.576 318.624 88.576C319.904 88.576 321.068 88.796 322.116 89.236C323.164 89.668 324.064 90.276 324.816 91.06C325.568 91.836 326.148 92.764 326.556 93.844C326.972 94.924 327.18 96.104 327.18 97.384ZM324.564 97.384C324.564 96.36 324.424 95.44 324.144 94.624C323.864 93.808 323.464 93.116 322.944 92.548C322.432 91.98 321.808 91.544 321.072 91.24C320.344 90.936 319.528 90.784 318.624 90.784C317.72 90.784 316.9 90.936 316.164 91.24C315.436 91.544 314.812 91.98 314.292 92.548C313.772 93.116 313.372 93.808 313.092 94.624C312.812 95.44 312.672 96.36 312.672 97.384C312.672 98.416 312.812 99.34 313.092 100.156C313.372 100.964 313.772 101.652 314.292 102.22C314.812 102.788 315.436 103.224 316.164 103.528C316.9 103.824 317.72 103.972 318.624 103.972C319.528 103.972 320.344 103.824 321.072 103.528C321.808 103.224 322.432 102.788 322.944 102.22C323.464 101.652 323.864 100.964 324.144 100.156C324.424 99.34 324.564 98.416 324.564 97.384ZM340.71 103.948C341.398 103.948 342.014 103.832 342.558 103.6C343.102 103.368 343.562 103.044 343.938 102.628C344.314 102.204 344.602 101.704 344.802 101.128C345.002 100.544 345.102 99.9 345.102 99.196V88.768H347.646V99.196C347.646 100.204 347.486 101.136 347.166 101.992C346.846 102.848 346.386 103.588 345.786 104.212C345.186 104.836 344.458 105.324 343.602 105.676C342.746 106.028 341.782 106.204 340.71 106.204C339.638 106.204 338.674 106.028 337.818 105.676C336.962 105.324 336.234 104.836 335.634 104.212C335.034 103.588 334.574 102.848 334.254 101.992C333.934 101.136 333.774 100.204 333.774 99.196V88.768H336.33V99.184C336.33 99.888 336.426 100.532 336.618 101.116C336.818 101.7 337.106 102.204 337.482 102.628C337.858 103.044 338.318 103.368 338.862 103.6C339.406 103.832 340.022 103.948 340.71 103.948ZM367.033 90.904H361.561V106H359.017V90.904H353.521V88.768H367.033V90.904ZM388.148 97.384C388.148 98.672 387.939 99.844 387.523 100.9C387.115 101.956 386.535 102.864 385.783 103.624C385.031 104.376 384.131 104.96 383.083 105.376C382.035 105.792 380.871 106 379.591 106H373.111V88.768H379.591C380.871 88.768 382.035 88.976 383.083 89.392C384.131 89.808 385.031 90.396 385.783 91.156C386.535 91.908 387.115 92.816 387.523 93.88C387.939 94.936 388.148 96.104 388.148 97.384ZM385.531 97.384C385.531 96.36 385.391 95.444 385.111 94.636C384.832 93.82 384.431 93.132 383.911 92.572C383.399 92.004 382.775 91.572 382.039 91.276C381.311 90.98 380.495 90.832 379.591 90.832H375.679V103.936H379.591C380.495 103.936 381.311 103.788 382.039 103.492C382.775 103.196 383.399 102.768 383.911 102.208C384.431 101.64 384.832 100.952 385.111 100.144C385.391 99.336 385.531 98.416 385.531 97.384ZM411.025 97.384C411.025 98.672 410.817 99.856 410.401 100.936C409.993 102.008 409.413 102.936 408.661 103.72C407.909 104.496 407.009 105.1 405.961 105.532C404.913 105.964 403.749 106.18 402.469 106.18C401.197 106.18 400.033 105.964 398.977 105.532C397.929 105.1 397.029 104.496 396.277 103.72C395.533 102.936 394.953 102.008 394.537 100.936C394.121 99.856 393.913 98.672 393.913 97.384C393.913 96.104 394.121 94.924 394.537 93.844C394.953 92.764 395.533 91.836 396.277 91.06C397.029 90.276 397.929 89.668 398.977 89.236C400.033 88.796 401.197 88.576 402.469 88.576C403.749 88.576 404.913 88.796 405.961 89.236C407.009 89.668 407.909 90.276 408.661 91.06C409.413 91.836 409.993 92.764 410.401 93.844C410.817 94.924 411.025 96.104 411.025 97.384ZM408.409 97.384C408.409 96.36 408.269 95.44 407.989 94.624C407.709 93.808 407.309 93.116 406.789 92.548C406.277 91.98 405.653 91.544 404.917 91.24C404.189 90.936 403.373 90.784 402.469 90.784C401.565 90.784 400.745 90.936 400.009 91.24C399.281 91.544 398.657 91.98 398.137 92.548C397.617 93.116 397.217 93.808 396.937 94.624C396.657 95.44 396.517 96.36 396.517 97.384C396.517 98.416 396.657 99.34 396.937 100.156C397.217 100.964 397.617 101.652 398.137 102.22C398.657 102.788 399.281 103.224 400.009 103.528C400.745 103.824 401.565 103.972 402.469 103.972C403.373 103.972 404.189 103.824 404.917 103.528C405.653 103.224 406.277 102.788 406.789 102.22C407.309 101.652 407.709 100.964 407.989 100.156C408.269 99.34 408.409 98.416 408.409 97.384ZM433.891 97.384C433.891 98.672 433.683 99.856 433.267 100.936C432.859 102.008 432.279 102.936 431.527 103.72C430.775 104.496 429.875 105.1 428.827 105.532C427.779 105.964 426.615 106.18 425.335 106.18C424.063 106.18 422.899 105.964 421.843 105.532C420.795 105.1 419.895 104.496 419.143 103.72C418.399 102.936 417.819 102.008 417.403 100.936C416.987 99.856 416.779 98.672 416.779 97.384C416.779 96.104 416.987 94.924 417.403 93.844C417.819 92.764 418.399 91.836 419.143 91.06C419.895 90.276 420.795 89.668 421.843 89.236C422.899 88.796 424.063 88.576 425.335 88.576C426.615 88.576 427.779 88.796 428.827 89.236C429.875 89.668 430.775 90.276 431.527 91.06C432.279 91.836 432.859 92.764 433.267 93.844C433.683 94.924 433.891 96.104 433.891 97.384ZM431.275 97.384C431.275 96.36 431.135 95.44 430.855 94.624C430.575 93.808 430.175 93.116 429.655 92.548C429.143 91.98 428.519 91.544 427.783 91.24C427.055 90.936 426.239 90.784 425.335 90.784C424.431 90.784 423.611 90.936 422.875 91.24C422.147 91.544 421.523 91.98 421.003 92.548C420.483 93.116 420.083 93.808 419.803 94.624C419.523 95.44 419.383 96.36 419.383 97.384C419.383 98.416 419.523 99.34 419.803 100.156C420.083 100.964 420.483 101.652 421.003 102.22C421.523 102.788 422.147 103.224 422.875 103.528C423.611 103.824 424.431 103.972 425.335 103.972C426.239 103.972 427.055 103.824 427.783 103.528C428.519 103.224 429.143 102.788 429.655 102.22C430.175 101.652 430.575 100.964 430.855 100.156C431.135 99.34 431.275 98.416 431.275 97.384ZM445.585 97.072C446.241 97.072 446.817 96.992 447.313 96.832C447.817 96.672 448.237 96.448 448.573 96.16C448.909 95.864 449.161 95.516 449.329 95.116C449.497 94.708 449.581 94.26 449.581 93.772C449.581 92.78 449.253 92.032 448.597 91.528C447.949 91.024 446.973 90.772 445.669 90.772H443.257V97.072H445.585ZM453.625 106H451.345C450.889 106 450.557 105.82 450.349 105.46L446.089 99.484C445.953 99.284 445.805 99.144 445.645 99.064C445.485 98.976 445.245 98.932 444.925 98.932H443.257V106H440.701V88.768H445.669C446.781 88.768 447.737 88.884 448.537 89.116C449.345 89.34 450.009 89.664 450.529 90.088C451.057 90.504 451.445 91.008 451.693 91.6C451.949 92.192 452.077 92.856 452.077 93.592C452.077 94.192 451.985 94.756 451.801 95.284C451.617 95.812 451.345 96.288 450.985 96.712C450.633 97.128 450.201 97.488 449.689 97.792C449.177 98.096 448.597 98.328 447.949 98.488C448.269 98.68 448.545 98.948 448.777 99.292L453.625 106ZM468.357 91.576C468.277 91.712 468.193 91.812 468.105 91.876C468.017 91.94 467.905 91.972 467.769 91.972C467.625 91.972 467.461 91.908 467.277 91.78C467.093 91.644 466.861 91.496 466.581 91.336C466.309 91.168 465.981 91.02 465.597 90.892C465.213 90.756 464.753 90.688 464.217 90.688C463.713 90.688 463.269 90.756 462.885 90.892C462.509 91.02 462.193 91.2 461.937 91.432C461.681 91.656 461.485 91.924 461.349 92.236C461.221 92.54 461.157 92.872 461.157 93.232C461.157 93.696 461.273 94.08 461.505 94.384C461.745 94.688 462.057 94.948 462.441 95.164C462.825 95.38 463.261 95.568 463.749 95.728C464.237 95.888 464.737 96.056 465.249 96.232C465.761 96.4 466.261 96.596 466.749 96.82C467.237 97.044 467.673 97.328 468.057 97.672C468.441 98.008 468.749 98.424 468.981 98.92C469.221 99.408 469.341 100.008 469.341 100.72C469.341 101.48 469.209 102.192 468.945 102.856C468.689 103.52 468.313 104.1 467.817 104.596C467.321 105.092 466.709 105.484 465.981 105.772C465.261 106.052 464.441 106.192 463.521 106.192C462.969 106.192 462.433 106.136 461.913 106.024C461.393 105.92 460.901 105.772 460.437 105.58C459.973 105.38 459.537 105.144 459.129 104.872C458.729 104.592 458.369 104.28 458.049 103.936L458.781 102.712C458.853 102.616 458.937 102.536 459.033 102.472C459.137 102.408 459.253 102.376 459.381 102.376C459.549 102.376 459.741 102.464 459.957 102.64C460.181 102.816 460.453 103.012 460.773 103.228C461.101 103.436 461.489 103.628 461.937 103.804C462.393 103.98 462.945 104.068 463.593 104.068C464.121 104.068 464.593 104 465.009 103.864C465.425 103.72 465.773 103.52 466.053 103.264C466.341 103 466.561 102.684 466.713 102.316C466.865 101.948 466.941 101.54 466.941 101.092C466.941 100.588 466.825 100.176 466.593 99.856C466.361 99.536 466.053 99.268 465.669 99.052C465.285 98.836 464.849 98.652 464.361 98.5C463.873 98.348 463.373 98.192 462.861 98.032C462.349 97.864 461.849 97.672 461.361 97.456C460.873 97.24 460.437 96.96 460.053 96.616C459.669 96.264 459.361 95.828 459.129 95.308C458.897 94.78 458.781 94.132 458.781 93.364C458.781 92.748 458.901 92.152 459.141 91.576C459.381 91 459.729 90.492 460.185 90.052C460.649 89.604 461.217 89.248 461.889 88.984C462.561 88.712 463.329 88.576 464.193 88.576C465.161 88.576 466.049 88.732 466.857 89.044C467.673 89.348 468.381 89.788 468.981 90.364L468.357 91.576Z" fill="white"/>
<path d="M311.151 131H309.974V123.102H311.151V131ZM318.836 124.389C318.799 124.451 318.761 124.497 318.72 124.526C318.68 124.556 318.629 124.57 318.566 124.57C318.5 124.57 318.425 124.541 318.341 124.482C318.257 124.42 318.15 124.352 318.022 124.279C317.897 124.202 317.747 124.134 317.571 124.075C317.395 124.013 317.184 123.982 316.938 123.982C316.707 123.982 316.504 124.013 316.328 124.075C316.156 124.134 316.011 124.217 315.893 124.323C315.776 124.426 315.686 124.548 315.624 124.691C315.565 124.831 315.536 124.983 315.536 125.148C315.536 125.361 315.589 125.537 315.695 125.676C315.805 125.815 315.948 125.934 316.124 126.033C316.3 126.132 316.5 126.219 316.724 126.292C316.948 126.365 317.177 126.442 317.411 126.523C317.646 126.6 317.875 126.69 318.099 126.792C318.323 126.895 318.522 127.025 318.698 127.183C318.874 127.337 319.016 127.528 319.122 127.755C319.232 127.979 319.287 128.254 319.287 128.58C319.287 128.928 319.226 129.255 319.105 129.559C318.988 129.863 318.816 130.129 318.588 130.356C318.361 130.584 318.081 130.763 317.747 130.895C317.417 131.024 317.041 131.088 316.619 131.088C316.366 131.088 316.121 131.062 315.882 131.011C315.644 130.963 315.419 130.895 315.206 130.807C314.993 130.716 314.793 130.608 314.606 130.483C314.423 130.355 314.258 130.212 314.111 130.054L314.447 129.493C314.48 129.449 314.518 129.412 314.562 129.383C314.61 129.354 314.663 129.339 314.722 129.339C314.799 129.339 314.887 129.379 314.986 129.46C315.089 129.541 315.213 129.63 315.36 129.729C315.51 129.825 315.688 129.913 315.893 129.993C316.102 130.074 316.355 130.114 316.652 130.114C316.894 130.114 317.111 130.083 317.301 130.021C317.492 129.955 317.652 129.863 317.78 129.746C317.912 129.625 318.013 129.48 318.082 129.311C318.152 129.143 318.187 128.956 318.187 128.75C318.187 128.519 318.134 128.331 318.027 128.184C317.921 128.037 317.78 127.914 317.604 127.815C317.428 127.716 317.228 127.632 317.004 127.562C316.781 127.493 316.552 127.421 316.317 127.348C316.082 127.271 315.853 127.183 315.629 127.084C315.406 126.985 315.206 126.857 315.03 126.699C314.854 126.538 314.713 126.338 314.606 126.099C314.5 125.857 314.447 125.56 314.447 125.208C314.447 124.926 314.502 124.653 314.612 124.389C314.722 124.125 314.881 123.892 315.09 123.69C315.303 123.485 315.563 123.322 315.871 123.201C316.179 123.076 316.531 123.014 316.927 123.014C317.371 123.014 317.778 123.085 318.148 123.228C318.522 123.368 318.847 123.569 319.122 123.833L318.836 124.389ZM336.999 123.102L334.535 131H333.479L331.554 125.142C331.51 125.025 331.471 124.884 331.438 124.719C331.398 124.888 331.359 125.029 331.323 125.142L329.376 131H328.325L325.861 123.102H326.84C326.943 123.102 327.029 123.128 327.099 123.179C327.168 123.227 327.214 123.293 327.236 123.377L328.793 128.662C328.822 128.765 328.848 128.877 328.87 128.998C328.895 129.119 328.921 129.245 328.947 129.377C328.972 129.245 328.998 129.119 329.024 128.998C329.053 128.877 329.086 128.765 329.123 128.662L330.905 123.377C330.927 123.304 330.973 123.239 331.042 123.184C331.116 123.129 331.202 123.102 331.301 123.102H331.636C331.739 123.102 331.823 123.128 331.889 123.179C331.955 123.23 332.003 123.296 332.032 123.377L333.809 128.662C333.875 128.864 333.933 129.093 333.985 129.35C334.029 129.097 334.076 128.868 334.128 128.662L335.69 123.377C335.708 123.304 335.754 123.239 335.827 123.184C335.901 123.129 335.987 123.102 336.086 123.102H336.999ZM346.234 123.102V131H345.062V127.441H340.943V131H339.766V123.102H340.943V126.589H345.062V123.102H346.234ZM354.738 130.048L354.733 131H349.838V123.102H354.733V124.053H351.015V126.556H354.007V127.474H351.015V130.048H354.738ZM360.075 126.908C360.376 126.908 360.64 126.871 360.867 126.798C361.098 126.725 361.29 126.622 361.444 126.49C361.598 126.354 361.714 126.195 361.791 126.011C361.868 125.824 361.906 125.619 361.906 125.395C361.906 124.941 361.756 124.598 361.455 124.367C361.158 124.136 360.711 124.02 360.113 124.02H359.008V126.908H360.075ZM363.76 131H362.715C362.506 131 362.354 130.917 362.258 130.752L360.306 128.013C360.244 127.922 360.176 127.858 360.102 127.821C360.029 127.781 359.919 127.76 359.772 127.76H359.008V131H357.836V123.102H360.113C360.623 123.102 361.061 123.155 361.428 123.261C361.798 123.364 362.103 123.513 362.341 123.707C362.583 123.898 362.761 124.129 362.874 124.4C362.992 124.671 363.05 124.976 363.05 125.313C363.05 125.588 363.008 125.846 362.924 126.088C362.84 126.33 362.715 126.549 362.55 126.743C362.389 126.934 362.191 127.099 361.956 127.238C361.721 127.377 361.455 127.484 361.158 127.557C361.305 127.645 361.432 127.768 361.538 127.925L363.76 131ZM371.326 130.048L371.321 131H366.426V123.102H371.321V124.053H367.603V126.556H370.595V127.474H367.603V130.048H371.326ZM383.378 130.015V131H378.857V123.102H380.028V130.015H383.378ZM387.345 131H386.168V123.102H387.345V131ZM392.121 124.053V126.699H395.289V127.65H392.121V131H390.944V123.102H395.839V124.053H392.121ZM403.714 130.048L403.709 131H398.814V123.102H403.709V124.053H399.991V126.556H402.983V127.474H399.991V130.048H403.714ZM417.712 123.102V131H416.541V127.441H412.421V131H411.244V123.102H412.421V126.589H416.541V123.102H417.712ZM425.513 128.057L424.341 124.994C424.257 124.785 424.173 124.521 424.088 124.202C424.048 124.36 424.006 124.506 423.962 124.642C423.921 124.778 423.881 124.899 423.841 125.005L422.675 128.057H425.513ZM427.828 131H426.926C426.824 131 426.739 130.974 426.673 130.923C426.607 130.872 426.56 130.806 426.53 130.725L425.832 128.893H422.35L421.652 130.725C421.626 130.795 421.578 130.859 421.509 130.917C421.439 130.972 421.355 131 421.256 131H420.354L423.5 123.102H424.682L427.828 131ZM432.857 127.166C433.154 127.166 433.414 127.128 433.638 127.051C433.865 126.974 434.054 126.866 434.204 126.726C434.358 126.583 434.474 126.415 434.551 126.22C434.628 126.022 434.666 125.804 434.666 125.566C434.666 125.086 434.516 124.708 434.215 124.433C433.918 124.158 433.465 124.02 432.857 124.02H431.636V127.166H432.857ZM432.857 123.102C433.363 123.102 433.803 123.161 434.177 123.278C434.551 123.395 434.861 123.562 435.106 123.778C435.352 123.991 435.533 124.25 435.651 124.554C435.772 124.858 435.832 125.196 435.832 125.566C435.832 125.936 435.768 126.277 435.64 126.589C435.511 126.897 435.323 127.163 435.073 127.386C434.824 127.61 434.512 127.784 434.138 127.909C433.768 128.03 433.341 128.09 432.857 128.09H431.636V131H430.464V123.102H432.857ZM441.167 127.166C441.464 127.166 441.724 127.128 441.948 127.051C442.175 126.974 442.364 126.866 442.514 126.726C442.668 126.583 442.784 126.415 442.861 126.22C442.938 126.022 442.976 125.804 442.976 125.566C442.976 125.086 442.826 124.708 442.525 124.433C442.228 124.158 441.776 124.02 441.167 124.02H439.946V127.166H441.167ZM441.167 123.102C441.673 123.102 442.113 123.161 442.487 123.278C442.861 123.395 443.171 123.562 443.416 123.778C443.662 123.991 443.844 124.25 443.961 124.554C444.082 124.858 444.142 125.196 444.142 125.566C444.142 125.936 444.078 126.277 443.95 126.589C443.822 126.897 443.633 127.163 443.383 127.386C443.134 127.61 442.822 127.784 442.448 127.909C442.078 128.03 441.651 128.09 441.167 128.09H439.946V131H438.774V123.102H441.167ZM451.985 130.048L451.98 131H447.085V123.102H451.98V124.053H448.262V126.556H451.254V127.474H448.262V130.048H451.985ZM461.551 123.102V131H460.957C460.866 131 460.789 130.983 460.726 130.95C460.668 130.917 460.607 130.864 460.545 130.791L456.084 125.021C456.092 125.12 456.097 125.218 456.101 125.313C456.108 125.408 456.112 125.498 456.112 125.582V131H455.083V123.102H455.688C455.791 123.102 455.868 123.115 455.919 123.14C455.971 123.162 456.027 123.216 456.09 123.3L460.561 129.075C460.55 128.969 460.541 128.866 460.534 128.767C460.53 128.664 460.528 128.569 460.528 128.481V123.102H461.551ZM469.242 124.389C469.205 124.451 469.166 124.497 469.126 124.526C469.086 124.556 469.034 124.57 468.972 124.57C468.906 124.57 468.831 124.541 468.747 124.482C468.662 124.42 468.556 124.352 468.428 124.279C468.303 124.202 468.153 124.134 467.977 124.075C467.801 124.013 467.59 123.982 467.344 123.982C467.113 123.982 466.91 124.013 466.734 124.075C466.561 124.134 466.416 124.217 466.299 124.323C466.182 124.426 466.092 124.548 466.03 124.691C465.971 124.831 465.942 124.983 465.942 125.148C465.942 125.361 465.995 125.537 466.101 125.676C466.211 125.815 466.354 125.934 466.53 126.033C466.706 126.132 466.906 126.219 467.13 126.292C467.353 126.365 467.582 126.442 467.817 126.523C468.052 126.6 468.281 126.69 468.505 126.792C468.728 126.895 468.928 127.025 469.104 127.183C469.28 127.337 469.421 127.528 469.528 127.755C469.638 127.979 469.693 128.254 469.693 128.58C469.693 128.928 469.632 129.255 469.511 129.559C469.394 129.863 469.221 130.129 468.994 130.356C468.767 130.584 468.486 130.763 468.153 130.895C467.823 131.024 467.447 131.088 467.025 131.088C466.772 131.088 466.526 131.062 466.288 131.011C466.05 130.963 465.824 130.895 465.612 130.807C465.399 130.716 465.199 130.608 465.012 130.483C464.829 130.355 464.664 130.212 464.517 130.054L464.853 129.493C464.886 129.449 464.924 129.412 464.968 129.383C465.016 129.354 465.069 129.339 465.128 129.339C465.205 129.339 465.293 129.379 465.392 129.46C465.494 129.541 465.619 129.63 465.766 129.729C465.916 129.825 466.094 129.913 466.299 129.993C466.508 130.074 466.761 130.114 467.058 130.114C467.3 130.114 467.516 130.083 467.707 130.021C467.898 129.955 468.057 129.863 468.186 129.746C468.318 129.625 468.418 129.48 468.488 129.311C468.558 129.143 468.593 128.956 468.593 128.75C468.593 128.519 468.539 128.331 468.433 128.184C468.327 128.037 468.186 127.914 468.01 127.815C467.834 127.716 467.634 127.632 467.41 127.562C467.186 127.493 466.957 127.421 466.723 127.348C466.488 127.271 466.259 127.183 466.035 127.084C465.811 126.985 465.612 126.857 465.436 126.699C465.26 126.538 465.118 126.338 465.012 126.099C464.906 125.857 464.853 125.56 464.853 125.208C464.853 124.926 464.908 124.653 465.018 124.389C465.128 124.125 465.287 123.892 465.496 123.69C465.709 123.485 465.969 123.322 466.277 123.201C466.585 123.076 466.937 123.014 467.333 123.014C467.777 123.014 468.184 123.085 468.554 123.228C468.928 123.368 469.253 123.569 469.528 123.833L469.242 124.389Z" fill="white"/>
<rect x="346" y="154" width="90" height="27" rx="13.5" fill="white"/>
<path d="M360.575 168.205C360.575 168.473 360.532 168.717 360.445 168.937C360.36 169.157 360.239 169.347 360.083 169.505C359.926 169.662 359.738 169.783 359.52 169.87C359.302 169.957 359.059 170 358.793 170H357.443V166.41H358.793C359.059 166.41 359.302 166.453 359.52 166.54C359.738 166.627 359.926 166.749 360.083 166.907C360.239 167.064 360.36 167.253 360.445 167.475C360.532 167.695 360.575 167.938 360.575 168.205ZM360.03 168.205C360.03 167.992 360.001 167.801 359.943 167.632C359.884 167.462 359.801 167.319 359.693 167.202C359.586 167.084 359.456 166.994 359.303 166.932C359.151 166.871 358.981 166.84 358.793 166.84H357.978V169.57H358.793C358.981 169.57 359.151 169.539 359.303 169.477C359.456 169.416 359.586 169.327 359.693 169.21C359.801 169.092 359.884 168.948 359.943 168.78C360.001 168.612 360.03 168.42 360.03 168.205ZM362.531 170H361.996V166.41H362.531V170ZM366.025 166.995C366.008 167.023 365.99 167.044 365.972 167.057C365.954 167.071 365.93 167.077 365.902 167.077C365.872 167.077 365.838 167.064 365.8 167.037C365.761 167.009 365.713 166.978 365.655 166.945C365.598 166.91 365.53 166.879 365.45 166.852C365.37 166.824 365.274 166.81 365.162 166.81C365.057 166.81 364.965 166.824 364.885 166.852C364.806 166.879 364.74 166.917 364.687 166.965C364.634 167.012 364.593 167.067 364.565 167.132C364.538 167.196 364.525 167.265 364.525 167.34C364.525 167.437 364.549 167.517 364.597 167.58C364.647 167.643 364.712 167.697 364.792 167.742C364.872 167.787 364.963 167.827 365.065 167.86C365.166 167.893 365.27 167.928 365.377 167.965C365.484 168 365.588 168.041 365.69 168.087C365.791 168.134 365.882 168.193 365.962 168.265C366.042 168.335 366.106 168.422 366.155 168.525C366.205 168.627 366.23 168.752 366.23 168.9C366.23 169.058 366.202 169.207 366.147 169.345C366.094 169.483 366.015 169.604 365.912 169.707C365.809 169.811 365.681 169.892 365.53 169.952C365.38 170.011 365.209 170.04 365.017 170.04C364.902 170.04 364.79 170.028 364.682 170.005C364.574 169.983 364.471 169.952 364.375 169.912C364.278 169.871 364.187 169.822 364.102 169.765C364.019 169.707 363.944 169.642 363.877 169.57L364.03 169.315C364.045 169.295 364.062 169.278 364.082 169.265C364.104 169.252 364.128 169.245 364.155 169.245C364.19 169.245 364.23 169.263 364.275 169.3C364.321 169.337 364.378 169.377 364.445 169.422C364.513 169.466 364.594 169.506 364.687 169.542C364.782 169.579 364.897 169.597 365.032 169.597C365.142 169.597 365.24 169.583 365.327 169.555C365.414 169.525 365.486 169.483 365.545 169.43C365.605 169.375 365.65 169.309 365.682 169.232C365.714 169.156 365.73 169.071 365.73 168.977C365.73 168.872 365.705 168.787 365.657 168.72C365.609 168.653 365.545 168.597 365.465 168.552C365.385 168.507 365.294 168.469 365.192 168.438C365.09 168.406 364.986 168.373 364.88 168.34C364.773 168.305 364.669 168.265 364.567 168.22C364.465 168.175 364.375 168.117 364.295 168.045C364.215 167.972 364.15 167.881 364.102 167.772C364.054 167.662 364.03 167.527 364.03 167.367C364.03 167.239 364.055 167.115 364.105 166.995C364.155 166.875 364.227 166.769 364.322 166.677C364.419 166.584 364.537 166.51 364.677 166.455C364.817 166.398 364.977 166.37 365.157 166.37C365.359 166.37 365.544 166.402 365.712 166.467C365.882 166.531 366.03 166.622 366.155 166.742L366.025 166.995ZM370.144 169.23C370.174 169.23 370.2 169.242 370.222 169.265L370.432 169.495C370.285 169.668 370.106 169.802 369.894 169.897C369.684 169.993 369.431 170.04 369.134 170.04C368.874 170.04 368.639 169.995 368.427 169.905C368.217 169.815 368.037 169.689 367.887 169.527C367.739 169.366 367.624 169.172 367.542 168.947C367.46 168.722 367.419 168.475 367.419 168.205C367.419 167.935 367.462 167.687 367.547 167.462C367.634 167.237 367.754 167.044 367.909 166.882C368.064 166.721 368.249 166.595 368.464 166.505C368.681 166.415 368.92 166.37 369.182 166.37C369.437 166.37 369.664 166.412 369.862 166.495C370.06 166.578 370.233 166.689 370.379 166.827L370.204 167.075C370.193 167.093 370.178 167.108 370.159 167.12C370.143 167.132 370.12 167.137 370.092 167.137C370.06 167.137 370.023 167.122 369.979 167.09C369.938 167.058 369.882 167.023 369.812 166.985C369.744 166.945 369.659 166.909 369.557 166.877C369.455 166.846 369.329 166.83 369.177 166.83C368.999 166.83 368.835 166.862 368.687 166.925C368.539 166.987 368.41 167.077 368.302 167.195C368.195 167.312 368.112 167.456 368.052 167.627C367.994 167.797 367.964 167.99 367.964 168.205C367.964 168.423 367.995 168.617 368.057 168.787C368.119 168.957 368.204 169.102 368.312 169.22C368.42 169.338 368.548 169.428 368.694 169.49C368.841 169.552 368.999 169.582 369.169 169.582C369.273 169.582 369.365 169.577 369.447 169.565C369.53 169.552 369.606 169.532 369.674 169.507C369.744 169.482 369.81 169.451 369.872 169.412C369.934 169.372 369.994 169.325 370.054 169.27C370.068 169.258 370.082 169.249 370.097 169.242C370.112 169.234 370.128 169.23 370.144 169.23ZM374.994 168.205C374.994 168.473 374.95 168.72 374.864 168.945C374.779 169.168 374.658 169.362 374.501 169.525C374.344 169.687 374.157 169.812 373.939 169.902C373.72 169.993 373.478 170.038 373.211 170.038C372.946 170.038 372.704 169.993 372.484 169.902C372.265 169.812 372.078 169.687 371.921 169.525C371.766 169.362 371.645 169.168 371.559 168.945C371.472 168.72 371.429 168.473 371.429 168.205C371.429 167.938 371.472 167.692 371.559 167.467C371.645 167.242 371.766 167.049 371.921 166.887C372.078 166.724 372.265 166.597 372.484 166.507C372.704 166.416 372.946 166.37 373.211 166.37C373.478 166.37 373.72 166.416 373.939 166.507C374.157 166.597 374.344 166.724 374.501 166.887C374.658 167.049 374.779 167.242 374.864 167.467C374.95 167.692 374.994 167.938 374.994 168.205ZM374.449 168.205C374.449 167.992 374.419 167.8 374.361 167.63C374.303 167.46 374.219 167.316 374.111 167.197C374.004 167.079 373.874 166.988 373.721 166.925C373.569 166.862 373.399 166.83 373.211 166.83C373.023 166.83 372.852 166.862 372.699 166.925C372.547 166.988 372.417 167.079 372.309 167.197C372.2 167.316 372.117 167.46 372.059 167.63C372 167.8 371.971 167.992 371.971 168.205C371.971 168.42 372 168.612 372.059 168.782C372.117 168.951 372.2 169.094 372.309 169.212C372.417 169.331 372.547 169.422 372.699 169.485C372.852 169.547 373.023 169.577 373.211 169.577C373.399 169.577 373.569 169.547 373.721 169.485C373.874 169.422 374.004 169.331 374.111 169.212C374.219 169.094 374.303 168.951 374.361 168.782C374.419 168.612 374.449 168.42 374.449 168.205ZM379.265 166.41L377.805 170H377.327L375.867 166.41H376.292C376.339 166.41 376.376 166.422 376.405 166.445C376.435 166.468 376.457 166.498 376.472 166.535L377.442 168.975C377.466 169.035 377.488 169.101 377.51 169.172C377.533 169.244 377.554 169.319 377.572 169.397C377.589 169.319 377.607 169.244 377.627 169.172C377.647 169.101 377.669 169.035 377.692 168.975L378.66 166.535C378.671 166.502 378.692 166.472 378.722 166.447C378.754 166.422 378.792 166.41 378.837 166.41H379.265ZM382.691 169.567L382.688 170H380.463V166.41H382.688V166.842H380.998V167.98H382.358V168.397H380.998V169.567H382.691ZM385.116 168.14C385.253 168.14 385.373 168.123 385.476 168.09C385.581 168.057 385.669 168.01 385.739 167.95C385.809 167.888 385.861 167.816 385.896 167.732C385.931 167.647 385.949 167.554 385.949 167.452C385.949 167.246 385.88 167.09 385.744 166.985C385.609 166.88 385.405 166.827 385.134 166.827H384.631V168.14H385.116ZM386.791 170H386.316C386.221 170 386.152 169.962 386.109 169.887L385.221 168.642C385.193 168.601 385.162 168.572 385.129 168.555C385.095 168.537 385.045 168.527 384.979 168.527H384.631V170H384.099V166.41H385.134C385.365 166.41 385.565 166.434 385.731 166.482C385.9 166.529 386.038 166.597 386.146 166.685C386.256 166.772 386.337 166.877 386.389 167C386.442 167.123 386.469 167.262 386.469 167.415C386.469 167.54 386.45 167.657 386.411 167.767C386.373 167.877 386.316 167.977 386.241 168.065C386.168 168.152 386.078 168.227 385.971 168.29C385.865 168.353 385.744 168.402 385.609 168.435C385.675 168.475 385.733 168.531 385.781 168.602L386.791 170ZM393.363 168.205C393.363 168.473 393.319 168.72 393.233 168.945C393.148 169.168 393.027 169.362 392.87 169.525C392.714 169.687 392.526 169.812 392.308 169.902C392.089 169.993 391.847 170.038 391.58 170.038C391.315 170.038 391.073 169.993 390.853 169.902C390.634 169.812 390.447 169.687 390.29 169.525C390.135 169.362 390.014 169.168 389.928 168.945C389.841 168.72 389.798 168.473 389.798 168.205C389.798 167.938 389.841 167.692 389.928 167.467C390.014 167.242 390.135 167.049 390.29 166.887C390.447 166.724 390.634 166.597 390.853 166.507C391.073 166.416 391.315 166.37 391.58 166.37C391.847 166.37 392.089 166.416 392.308 166.507C392.526 166.597 392.714 166.724 392.87 166.887C393.027 167.049 393.148 167.242 393.233 167.467C393.319 167.692 393.363 167.938 393.363 168.205ZM392.818 168.205C392.818 167.992 392.789 167.8 392.73 167.63C392.672 167.46 392.589 167.316 392.48 167.197C392.374 167.079 392.244 166.988 392.09 166.925C391.939 166.862 391.769 166.83 391.58 166.83C391.392 166.83 391.221 166.862 391.068 166.925C390.916 166.988 390.786 167.079 390.678 167.197C390.569 167.316 390.486 167.46 390.428 167.63C390.369 167.8 390.34 167.992 390.34 168.205C390.34 168.42 390.369 168.612 390.428 168.782C390.486 168.951 390.569 169.094 390.678 169.212C390.786 169.331 390.916 169.422 391.068 169.485C391.221 169.547 391.392 169.577 391.58 169.577C391.769 169.577 391.939 169.547 392.09 169.485C392.244 169.422 392.374 169.331 392.48 169.212C392.589 169.094 392.672 168.951 392.73 168.782C392.789 168.612 392.818 168.42 392.818 168.205ZM396.181 169.572C396.325 169.572 396.453 169.548 396.566 169.5C396.68 169.452 396.776 169.384 396.854 169.297C396.932 169.209 396.992 169.105 397.034 168.985C397.076 168.863 397.096 168.729 397.096 168.582V166.41H397.626V168.582C397.626 168.792 397.593 168.987 397.526 169.165C397.46 169.343 397.364 169.497 397.239 169.627C397.114 169.757 396.962 169.859 396.784 169.932C396.606 170.006 396.405 170.043 396.181 170.043C395.958 170.043 395.757 170.006 395.579 169.932C395.401 169.859 395.249 169.757 395.124 169.627C394.999 169.497 394.903 169.343 394.836 169.165C394.77 168.987 394.736 168.792 394.736 168.582V166.41H395.269V168.58C395.269 168.727 395.289 168.861 395.329 168.982C395.371 169.104 395.431 169.209 395.509 169.297C395.587 169.384 395.683 169.452 395.796 169.5C395.91 169.548 396.038 169.572 396.181 169.572ZM400.235 168.14C400.372 168.14 400.492 168.123 400.595 168.09C400.7 168.057 400.788 168.01 400.858 167.95C400.928 167.888 400.98 167.816 401.015 167.732C401.05 167.647 401.068 167.554 401.068 167.452C401.068 167.246 401 167.09 400.863 166.985C400.728 166.88 400.525 166.827 400.253 166.827H399.75V168.14H400.235ZM401.91 170H401.435C401.34 170 401.271 169.962 401.228 169.887L400.34 168.642C400.312 168.601 400.281 168.572 400.248 168.555C400.215 168.537 400.165 168.527 400.098 168.527H399.75V170H399.218V166.41H400.253C400.485 166.41 400.684 166.434 400.85 166.482C401.019 166.529 401.157 166.597 401.265 166.685C401.375 166.772 401.456 166.877 401.508 167C401.561 167.123 401.588 167.262 401.588 167.415C401.588 167.54 401.569 167.657 401.53 167.767C401.492 167.877 401.435 167.977 401.36 168.065C401.287 168.152 401.197 168.227 401.09 168.29C400.984 168.353 400.863 168.402 400.728 168.435C400.795 168.475 400.852 168.531 400.9 168.602L401.91 170ZM407.433 166.855H406.293V170H405.763V166.855H404.618V166.41H407.433V166.855ZM411.893 168.205C411.893 168.473 411.85 168.72 411.763 168.945C411.678 169.168 411.557 169.362 411.4 169.525C411.244 169.687 411.056 169.812 410.838 169.902C410.62 169.993 410.377 170.038 410.11 170.038C409.845 170.038 409.603 169.993 409.383 169.902C409.165 169.812 408.977 169.687 408.82 169.525C408.665 169.362 408.545 169.168 408.458 168.945C408.371 168.72 408.328 168.473 408.328 168.205C408.328 167.938 408.371 167.692 408.458 167.467C408.545 167.242 408.665 167.049 408.82 166.887C408.977 166.724 409.165 166.597 409.383 166.507C409.603 166.416 409.845 166.37 410.11 166.37C410.377 166.37 410.62 166.416 410.838 166.507C411.056 166.597 411.244 166.724 411.4 166.887C411.557 167.049 411.678 167.242 411.763 167.467C411.85 167.692 411.893 167.938 411.893 168.205ZM411.348 168.205C411.348 167.992 411.319 167.8 411.26 167.63C411.202 167.46 411.119 167.316 411.01 167.197C410.904 167.079 410.774 166.988 410.62 166.925C410.469 166.862 410.299 166.83 410.11 166.83C409.922 166.83 409.751 166.862 409.598 166.925C409.446 166.988 409.316 167.079 409.208 167.197C409.1 167.316 409.016 167.46 408.958 167.63C408.9 167.8 408.87 167.992 408.87 168.205C408.87 168.42 408.9 168.612 408.958 168.782C409.016 168.951 409.1 169.094 409.208 169.212C409.316 169.331 409.446 169.422 409.598 169.485C409.751 169.547 409.922 169.577 410.11 169.577C410.299 169.577 410.469 169.547 410.62 169.485C410.774 169.422 410.904 169.331 411.01 169.212C411.119 169.094 411.202 168.951 411.26 168.782C411.319 168.612 411.348 168.42 411.348 168.205ZM414.712 169.572C414.855 169.572 414.983 169.548 415.097 169.5C415.21 169.452 415.306 169.384 415.384 169.297C415.462 169.209 415.522 169.105 415.564 168.985C415.606 168.863 415.627 168.729 415.627 168.582V166.41H416.157V168.582C416.157 168.792 416.123 168.987 416.057 169.165C415.99 169.343 415.894 169.497 415.769 169.627C415.644 169.757 415.492 169.859 415.314 169.932C415.136 170.006 414.935 170.043 414.712 170.043C414.488 170.043 414.287 170.006 414.109 169.932C413.931 169.859 413.779 169.757 413.654 169.627C413.529 169.497 413.433 169.343 413.367 169.165C413.3 168.987 413.267 168.792 413.267 168.582V166.41H413.799V168.58C413.799 168.727 413.819 168.861 413.859 168.982C413.901 169.104 413.961 169.209 414.039 169.297C414.117 169.384 414.213 169.452 414.327 169.5C414.44 169.548 414.568 169.572 414.712 169.572ZM418.766 168.14C418.902 168.14 419.022 168.123 419.126 168.09C419.231 168.057 419.318 168.01 419.388 167.95C419.458 167.888 419.511 167.816 419.546 167.732C419.581 167.647 419.598 167.554 419.598 167.452C419.598 167.246 419.53 167.09 419.393 166.985C419.258 166.88 419.055 166.827 418.783 166.827H418.281V168.14H418.766ZM420.441 170H419.966C419.871 170 419.801 169.962 419.758 169.887L418.871 168.642C418.842 168.601 418.811 168.572 418.778 168.555C418.745 168.537 418.695 168.527 418.628 168.527H418.281V170H417.748V166.41H418.783C419.015 166.41 419.214 166.434 419.381 166.482C419.549 166.529 419.687 166.597 419.796 166.685C419.906 166.772 419.986 166.877 420.038 167C420.091 167.123 420.118 167.262 420.118 167.415C420.118 167.54 420.099 167.657 420.061 167.767C420.022 167.877 419.966 167.977 419.891 168.065C419.817 168.152 419.727 168.227 419.621 168.29C419.514 168.353 419.393 168.402 419.258 168.435C419.325 168.475 419.382 168.531 419.431 168.602L420.441 170ZM423.51 166.995C423.493 167.023 423.476 167.044 423.457 167.057C423.439 167.071 423.416 167.077 423.387 167.077C423.357 167.077 423.323 167.064 423.285 167.037C423.247 167.009 423.198 166.978 423.14 166.945C423.083 166.91 423.015 166.879 422.935 166.852C422.855 166.824 422.759 166.81 422.647 166.81C422.542 166.81 422.45 166.824 422.37 166.852C422.292 166.879 422.226 166.917 422.172 166.965C422.119 167.012 422.078 167.067 422.05 167.132C422.023 167.196 422.01 167.265 422.01 167.34C422.01 167.437 422.034 167.517 422.082 167.58C422.132 167.643 422.197 167.697 422.277 167.742C422.357 167.787 422.448 167.827 422.55 167.86C422.652 167.893 422.756 167.928 422.862 167.965C422.969 168 423.073 168.041 423.175 168.087C423.277 168.134 423.367 168.193 423.447 168.265C423.527 168.335 423.592 168.422 423.64 168.525C423.69 168.627 423.715 168.752 423.715 168.9C423.715 169.058 423.687 169.207 423.632 169.345C423.579 169.483 423.501 169.604 423.397 169.707C423.294 169.811 423.167 169.892 423.015 169.952C422.865 170.011 422.694 170.04 422.502 170.04C422.387 170.04 422.276 170.028 422.167 170.005C422.059 169.983 421.957 169.952 421.86 169.912C421.763 169.871 421.672 169.822 421.587 169.765C421.504 169.707 421.429 169.642 421.362 169.57L421.515 169.315C421.53 169.295 421.547 169.278 421.567 169.265C421.589 169.252 421.613 169.245 421.64 169.245C421.675 169.245 421.715 169.263 421.76 169.3C421.807 169.337 421.863 169.377 421.93 169.422C421.998 169.466 422.079 169.506 422.172 169.542C422.267 169.579 422.382 169.597 422.517 169.597C422.627 169.597 422.726 169.583 422.812 169.555C422.899 169.525 422.972 169.483 423.03 169.43C423.09 169.375 423.136 169.309 423.167 169.232C423.199 169.156 423.215 169.071 423.215 168.977C423.215 168.872 423.191 168.787 423.142 168.72C423.094 168.653 423.03 168.597 422.95 168.552C422.87 168.507 422.779 168.469 422.677 168.438C422.576 168.406 422.472 168.373 422.365 168.34C422.258 168.305 422.154 168.265 422.052 168.22C421.951 168.175 421.86 168.117 421.78 168.045C421.7 167.972 421.636 167.881 421.587 167.772C421.539 167.662 421.515 167.527 421.515 167.367C421.515 167.239 421.54 167.115 421.59 166.995C421.64 166.875 421.712 166.769 421.807 166.677C421.904 166.584 422.022 166.51 422.162 166.455C422.302 166.398 422.462 166.37 422.642 166.37C422.844 166.37 423.029 166.402 423.197 166.467C423.367 166.531 423.515 166.622 423.64 166.742L423.51 166.995Z" fill="black"/>
<path d="M136 247.592C136 242.437 139.919 238.127 145.051 237.638L634.051 191.043C639.922 190.484 645 195.101 645 200.998V357C645 362.523 640.523 367 635 367H146C140.477 367 136 362.523 136 357V247.592Z" fill="#F7F7F7"/>
<path d="M133.57 239.018L651 193" stroke="#F7F7F7" stroke-width="10"/>
<path d="M649 186L648.5 366" stroke="#1D1D25" stroke-width="10"/>
<line x1="133.5" y1="231" x2="133.5" y2="255" stroke="#1D1D25" stroke-width="5"/>
<defs>
<filter id="filter0_d_1_35" x="0" y="0" width="779" height="467" filterUnits="userSpaceOnUse" color-interpolation-filters="sRGB">
<feFlood flood-opacity="0" result="BackgroundImageFix"/>
<feColorMatrix in="SourceAlpha" type="matrix" values="0 0 0 0 0 0 0 0 0 0 0 0 0 0 0 0 0 0 127 0" result="hardAlpha"/>
<feOffset dy="20"/>
<feGaussianBlur stdDeviation="20"/>
<feColorMatrix type="matrix" values="0 0 0 0 0.421822 0 0 0 0 0.554338 0 0 0 0 0.89371 0 0 0 0.243444 0"/>
<feBlend mode="normal" in2="BackgroundImageFix" result="effect1_dropShadow_1_35"/>
<feBlend mode="normal" in="SourceGraphic" in2="effect1_dropShadow_1_35" result="shape"/>
</filter>
</defs>
</svg>
