<svg xmlns="http://www.w3.org/2000/svg" viewBox="0 0 64 64" fill='#ffffff'><path d="M60.86,13.26a1,1,0,0,0,0-.28s0,0,0,0,0-.05,0-.08a1,1,0,0,0-.11-.19l-.11-.11-.08-.08-.06,0-.14-.07-.17-.06-.15,0h-.3L3.86,24.49a1,1,0,0,0-.25,1.86l15.56,8.11,2.51,15.73a1,1,0,0,0,.09.28l0,.06a1,1,0,0,0,.19.24l0,0a1,1,0,0,0,.22.14h.06l.06,0a1,1,0,0,0,.3,0h0A1,1,0,0,0,23,51l.09,0,.14-.06,10.92-6.72,11.23,7.38a1,1,0,0,0,1.49-.49l14-37.42a1,1,0,0,0,.06-.32S60.86,13.28,60.86,13.26Zm-35,23.91a1,1,0,0,0-.15.14l0,0a1,1,0,0,0-.17.31l0,0-2.56,8L21.18,34.36l28.13-14.5ZM52.65,15.89,20.08,32.68,7,25.85ZM24.44,47.77l2.62-8.24L32.27,43Zm21,1.42-10.68-7h0l-6.46-4.24L57.75,16.1Z" data-name="Layer 2"/></svg>