<svg width="779" height="467" viewBox="0 0 779 467" fill="none" xmlns="http://www.w3.org/2000/svg">
<g filter="url(#filter0_d_2_58)">
<rect x="122" y="20" width="538" height="368" rx="12" fill="#535353"/>
<rect x="125" y="23" width="532" height="362" rx="10" fill="#1D1D25"/>
<path d="M40 387C40 385.343 41.3431 384 43 384H735.899C737.556 384 738.899 385.343 738.899 387V401.105H40V387Z" fill="#52526F"/>
<mask id="mask0_2_58" style="mask-type:alpha" maskUnits="userSpaceOnUse" x="40" y="384" width="699" height="18">
<path d="M40 387C40 385.343 41.3431 384 43 384H735.899C737.556 384 738.899 385.343 738.899 387V401.105H40V387Z" fill="white"/>
</mask>
<g mask="url(#mask0_2_58)">
<rect x="332.371" y="342.092" width="114.156" height="52.1711" rx="10" fill="#2F2F47"/>
</g>
<path d="M40 401H739V401C739 404.314 736.314 407 733 407H46C42.6863 407 40 404.314 40 401V401Z" fill="#393A56"/>
</g>
<rect x="136" y="34" width="508" height="333" rx="10" fill="#D92B60"/>
<rect x="161" y="50" width="457" height="45" fill="white"/>
<rect x="161" y="95" width="70" height="255" fill="#333333"/>
<path d="M176.876 82L189 61L201.124 82H176.876Z" stroke="#D92B60"/>
<path d="M191.407 81.75L200.5 66L209.593 81.75H191.407Z" stroke="#D92B60"/>
<rect x="231" y="95" width="387" height="255" fill="#EAEAEA"/>
<rect x="290" y="65" width="168" height="15" rx="7.5" fill="#DFDFDF"/>
<circle cx="443" cy="71" r="2.75" stroke="black" stroke-width="0.5"/>
<line x1="445.177" y1="72.8232" x2="448.712" y2="76.3588" stroke="black" stroke-width="0.5"/>
<rect x="161" y="109" width="70" height="29" fill="#CD285A"/>
<path d="M188.254 127H187.32V124.422H184.688V127H183.75V121.289H184.688V123.625H187.32V121.289H188.254V127ZM194.916 124.137C194.916 124.577 194.86 124.978 194.748 125.34C194.639 125.699 194.473 126.009 194.252 126.27C194.031 126.527 193.753 126.727 193.42 126.867C193.087 127.008 192.696 127.078 192.248 127.078C191.792 127.078 191.396 127.008 191.06 126.867C190.727 126.727 190.45 126.526 190.228 126.266C190.01 126.005 189.846 125.694 189.736 125.332C189.627 124.97 189.572 124.569 189.572 124.129C189.572 123.54 189.669 123.027 189.861 122.59C190.057 122.15 190.352 121.809 190.748 121.566C191.146 121.322 191.649 121.199 192.256 121.199C192.85 121.199 193.343 121.32 193.736 121.562C194.129 121.805 194.424 122.146 194.619 122.586C194.817 123.023 194.916 123.54 194.916 124.137ZM190.557 124.137C190.557 124.577 190.616 124.958 190.736 125.281C190.856 125.602 191.04 125.849 191.287 126.023C191.537 126.195 191.857 126.281 192.248 126.281C192.641 126.281 192.962 126.195 193.209 126.023C193.456 125.849 193.639 125.602 193.756 125.281C193.873 124.958 193.932 124.577 193.932 124.137C193.932 123.467 193.797 122.944 193.529 122.566C193.264 122.186 192.839 121.996 192.256 121.996C191.865 121.996 191.544 122.082 191.291 122.254C191.041 122.426 190.856 122.672 190.736 122.992C190.616 123.31 190.557 123.691 190.557 124.137ZM198.203 127H197.262V122.086H195.59V121.289H199.871V122.086H198.203V127ZM204.06 127H200.826V121.289H204.06V122.078H201.763V123.629H203.916V124.414H201.763V126.207H204.06V127ZM205.375 127V121.289H206.312V126.203H208.738V127H205.375Z" fill="white"/>
<path d="M184.68 166H183.75V160.289H186.977V161.078H184.68V162.859H186.828V163.645H184.68V166ZM188.096 166V160.289H189.033V165.203H191.459V166H188.096ZM192.527 166V160.289H193.465V166H192.527ZM197.357 162.898H199.49V165.766C199.191 165.865 198.881 165.941 198.56 165.996C198.24 166.051 197.881 166.078 197.482 166.078C196.901 166.078 196.409 165.964 196.006 165.734C195.605 165.503 195.3 165.168 195.092 164.73C194.883 164.29 194.779 163.76 194.779 163.141C194.779 162.544 194.895 162.027 195.127 161.59C195.358 161.15 195.696 160.81 196.138 160.57C196.581 160.328 197.118 160.207 197.748 160.207C198.058 160.207 198.357 160.238 198.646 160.301C198.938 160.361 199.205 160.444 199.447 160.551L199.119 161.324C198.926 161.233 198.71 161.156 198.47 161.094C198.231 161.031 197.982 161 197.724 161C197.316 161 196.963 161.089 196.666 161.266C196.372 161.443 196.145 161.693 195.986 162.016C195.827 162.336 195.748 162.715 195.748 163.152C195.748 163.577 195.812 163.949 195.939 164.27C196.067 164.59 196.266 164.84 196.537 165.02C196.81 165.197 197.163 165.285 197.595 165.285C197.812 165.285 197.995 165.273 198.146 165.25C198.297 165.227 198.437 165.201 198.564 165.172V163.699H197.357V162.898ZM205.441 166H204.507V163.422H201.875V166H200.937V160.289H201.875V162.625H204.507V160.289H205.441V166ZM209.013 166H208.072V161.086H206.4V160.289H210.681V161.086H209.013V166Z" fill="white"/>
<path d="M175.184 195.004C174.91 195.004 174.665 195.053 174.449 195.152C174.236 195.251 174.055 195.395 173.906 195.582C173.758 195.767 173.645 195.992 173.566 196.258C173.488 196.521 173.449 196.818 173.449 197.148C173.449 197.591 173.512 197.973 173.637 198.293C173.762 198.611 173.952 198.855 174.207 199.027C174.462 199.197 174.785 199.281 175.176 199.281C175.418 199.281 175.654 199.258 175.883 199.211C176.112 199.164 176.349 199.1 176.594 199.02V199.816C176.362 199.908 176.128 199.974 175.891 200.016C175.654 200.057 175.38 200.078 175.07 200.078C174.487 200.078 174.003 199.957 173.617 199.715C173.234 199.473 172.948 199.132 172.758 198.691C172.57 198.251 172.477 197.736 172.477 197.145C172.477 196.712 172.536 196.316 172.656 195.957C172.776 195.598 172.951 195.288 173.18 195.027C173.409 194.764 173.691 194.562 174.027 194.422C174.366 194.279 174.753 194.207 175.188 194.207C175.474 194.207 175.755 194.24 176.031 194.305C176.31 194.367 176.568 194.457 176.805 194.574L176.477 195.348C176.279 195.254 176.072 195.173 175.855 195.105C175.639 195.038 175.415 195.004 175.184 195.004ZM181.439 200L180.881 198.414H178.697L178.139 200H177.15L179.275 194.266H180.314L182.435 200H181.439ZM180.639 197.609L180.096 196.047C180.075 195.979 180.045 195.884 180.006 195.762C179.967 195.637 179.928 195.51 179.889 195.383C179.85 195.253 179.817 195.143 179.791 195.055C179.765 195.161 179.732 195.281 179.693 195.414C179.657 195.544 179.62 195.667 179.584 195.781C179.55 195.896 179.524 195.984 179.506 196.047L178.959 197.609H180.639ZM184.875 194.289C185.367 194.289 185.773 194.349 186.094 194.469C186.417 194.589 186.656 194.771 186.812 195.016C186.971 195.26 187.051 195.572 187.051 195.949C187.051 196.23 186.999 196.47 186.894 196.668C186.79 196.866 186.653 197.03 186.484 197.16C186.315 197.29 186.134 197.395 185.941 197.473L187.562 200H186.504L185.125 197.711H184.207V200H183.269V194.289H184.875ZM184.812 195.07H184.207V196.938H184.855C185.29 196.938 185.605 196.857 185.801 196.695C185.999 196.534 186.097 196.296 186.097 195.98C186.097 195.65 185.992 195.415 185.781 195.277C185.573 195.139 185.25 195.07 184.812 195.07ZM192.222 194.289C192.715 194.289 193.121 194.349 193.441 194.469C193.764 194.589 194.004 194.771 194.16 195.016C194.319 195.26 194.398 195.572 194.398 195.949C194.398 196.23 194.346 196.47 194.242 196.668C194.138 196.866 194.001 197.03 193.832 197.16C193.662 197.29 193.481 197.395 193.289 197.473L194.91 200H193.851L192.472 197.711H191.554V200H190.617V194.289H192.222ZM192.16 195.07H191.554V196.938H192.203C192.638 196.938 192.953 196.857 193.148 196.695C193.346 196.534 193.445 196.296 193.445 195.98C193.445 195.65 193.34 195.415 193.129 195.277C192.92 195.139 192.597 195.07 192.16 195.07ZM199.041 200H195.806V194.289H199.041V195.078H196.744V196.629H198.896V197.414H196.744V199.207H199.041V200ZM205.121 200H203.968L201.171 195.441H201.136C201.147 195.595 201.156 195.758 201.164 195.93C201.174 196.102 201.182 196.279 201.187 196.461C201.195 196.643 201.201 196.828 201.207 197.016V200H200.355V194.289H201.5L204.292 198.816H204.32C204.315 198.684 204.308 198.531 204.3 198.359C204.292 198.188 204.285 198.01 204.277 197.828C204.272 197.643 204.268 197.465 204.265 197.293V194.289H205.121V200ZM208.681 200H207.74V195.086H206.068V194.289H210.349V195.086H208.681V200ZM214.843 200L214.285 198.414H212.101L211.542 200H210.554L212.679 194.266H213.718L215.839 200H214.843ZM214.042 197.609L213.499 196.047C213.479 195.979 213.449 195.884 213.41 195.762C213.37 195.637 213.331 195.51 213.292 195.383C213.253 195.253 213.221 195.143 213.195 195.055C213.169 195.161 213.136 195.281 213.097 195.414C213.061 195.544 213.024 195.667 212.988 195.781C212.954 195.896 212.928 195.984 212.91 196.047L212.363 197.609H214.042ZM216.673 200V194.289H217.611V199.203H220.036V200H216.673Z" fill="white"/>
<path d="M184.73 230H183.789V225.086H182.117V224.289H186.398V225.086H184.73V230ZM192.424 227.137C192.424 227.577 192.368 227.978 192.256 228.34C192.146 228.699 191.981 229.009 191.76 229.27C191.538 229.527 191.261 229.727 190.928 229.867C190.594 230.008 190.204 230.078 189.756 230.078C189.3 230.078 188.904 230.008 188.568 229.867C188.235 229.727 187.958 229.526 187.736 229.266C187.517 229.005 187.353 228.694 187.244 228.332C187.135 227.97 187.08 227.569 187.08 227.129C187.08 226.54 187.176 226.027 187.369 225.59C187.564 225.15 187.86 224.809 188.256 224.566C188.654 224.322 189.157 224.199 189.764 224.199C190.357 224.199 190.851 224.32 191.244 224.562C191.637 224.805 191.932 225.146 192.127 225.586C192.325 226.023 192.424 226.54 192.424 227.137ZM188.064 227.137C188.064 227.577 188.124 227.958 188.244 228.281C188.364 228.602 188.547 228.849 188.795 229.023C189.045 229.195 189.365 229.281 189.756 229.281C190.149 229.281 190.469 229.195 190.717 229.023C190.964 228.849 191.146 228.602 191.264 228.281C191.381 227.958 191.439 227.577 191.439 227.137C191.439 226.467 191.305 225.944 191.037 225.566C190.771 225.186 190.347 224.996 189.764 224.996C189.373 224.996 189.051 225.082 188.799 225.254C188.549 225.426 188.364 225.672 188.244 225.992C188.124 226.31 188.064 226.691 188.064 227.137ZM198.215 224.289V227.984C198.215 228.383 198.13 228.74 197.961 229.055C197.794 229.37 197.542 229.62 197.203 229.805C196.864 229.987 196.439 230.078 195.926 230.078C195.194 230.078 194.637 229.887 194.254 229.504C193.874 229.118 193.683 228.607 193.683 227.969V224.289H194.621V227.887C194.621 228.363 194.733 228.715 194.957 228.941C195.181 229.168 195.515 229.281 195.961 229.281C196.268 229.281 196.518 229.228 196.711 229.121C196.906 229.012 197.049 228.853 197.14 228.645C197.234 228.434 197.281 228.18 197.281 227.883V224.289H198.215ZM201.361 224.289C201.853 224.289 202.26 224.349 202.58 224.469C202.903 224.589 203.142 224.771 203.299 225.016C203.457 225.26 203.537 225.572 203.537 225.949C203.537 226.23 203.485 226.47 203.381 226.668C203.276 226.866 203.14 227.03 202.97 227.16C202.801 227.29 202.62 227.395 202.427 227.473L204.049 230H202.99L201.611 227.711H200.693V230H199.756V224.289H201.361ZM201.299 225.07H200.693V226.938H201.342C201.776 226.938 202.092 226.857 202.287 226.695C202.485 226.534 202.584 226.296 202.584 225.98C202.584 225.65 202.478 225.415 202.267 225.277C202.059 225.139 201.736 225.07 201.299 225.07ZM208.242 228.445C208.242 228.784 208.159 229.076 207.992 229.32C207.828 229.565 207.591 229.753 207.281 229.883C206.974 230.013 206.606 230.078 206.179 230.078C205.971 230.078 205.772 230.066 205.582 230.043C205.392 230.02 205.212 229.986 205.043 229.941C204.876 229.895 204.724 229.839 204.586 229.773V228.891C204.817 228.992 205.077 229.085 205.363 229.168C205.649 229.249 205.941 229.289 206.238 229.289C206.48 229.289 206.681 229.258 206.84 229.195C207.001 229.13 207.121 229.039 207.199 228.922C207.277 228.802 207.316 228.663 207.316 228.504C207.316 228.335 207.271 228.191 207.179 228.074C207.088 227.957 206.95 227.85 206.765 227.754C206.583 227.655 206.354 227.549 206.078 227.438C205.89 227.362 205.711 227.276 205.539 227.18C205.369 227.083 205.218 226.97 205.086 226.84C204.953 226.71 204.847 226.556 204.769 226.379C204.694 226.199 204.656 225.988 204.656 225.746C204.656 225.423 204.733 225.147 204.886 224.918C205.043 224.689 205.261 224.513 205.543 224.391C205.827 224.268 206.157 224.207 206.535 224.207C206.834 224.207 207.116 224.238 207.379 224.301C207.644 224.363 207.905 224.452 208.16 224.566L207.863 225.32C207.629 225.224 207.401 225.147 207.179 225.09C206.961 225.033 206.737 225.004 206.507 225.004C206.31 225.004 206.142 225.034 206.004 225.094C205.866 225.154 205.76 225.238 205.687 225.348C205.617 225.454 205.582 225.582 205.582 225.73C205.582 225.897 205.622 226.038 205.703 226.152C205.786 226.264 205.914 226.367 206.086 226.461C206.26 226.555 206.484 226.659 206.757 226.773C207.073 226.904 207.34 227.04 207.558 227.184C207.78 227.327 207.949 227.499 208.066 227.699C208.183 227.897 208.242 228.146 208.242 228.445Z" fill="white"/>
<rect x="245" y="109" width="199" height="227" fill="white"/>
<rect x="458" y="109" width="146" height="227" fill="white"/>
<defs>
<filter id="filter0_d_2_58" x="0" y="0" width="779" height="467" filterUnits="userSpaceOnUse" color-interpolation-filters="sRGB">
<feFlood flood-opacity="0" result="BackgroundImageFix"/>
<feColorMatrix in="SourceAlpha" type="matrix" values="0 0 0 0 0 0 0 0 0 0 0 0 0 0 0 0 0 0 127 0" result="hardAlpha"/>
<feOffset dy="20"/>
<feGaussianBlur stdDeviation="20"/>
<feColorMatrix type="matrix" values="0 0 0 0 0.421822 0 0 0 0 0.554338 0 0 0 0 0.89371 0 0 0 0.243444 0"/>
<feBlend mode="normal" in2="BackgroundImageFix" result="effect1_dropShadow_2_58"/>
<feBlend mode="normal" in="SourceGraphic" in2="effect1_dropShadow_2_58" result="shape"/>
</filter>
</defs>
</svg>
